<svg xmlns="http://www.w3.org/2000/svg" viewBox="0 0 50.96 50.97"><defs><style>.cls-1{fill:#fff;}.cls-1,.cls-2{fill-rule:evenodd;}</style></defs><g id="Layer_2" data-name="Layer 2"><g id="Layer_1-2" data-name="Layer 1"><g id="Master_Poses_Standing" data-name="Master Poses Standing"><g id="Group_170" data-name="Group 170"><g id="Head"><g id="Head_Hat" data-name="Head Hat"><g id="Hat"><path id="SKIN-3" class="cls-1" d="M42.46,24.44C46,36.71,44.15,46.86,35.67,49.49,23.38,53.29,15.89,44.32,14.49,38c-3.71.66-5.63-3-5.62-5.37,0-2.11,1.66-3.49,4.42-3.06-2-8.56,4-13.93,9.07-15.72,6.36-2.23,16.22-2.92,20.1,10.57"/><path id="ink" class="cls-2" d="M8.49,19.22a40.16,40.16,0,0,1,7.14-3.13.36.36,0,0,1,.45.24.35.35,0,0,1-.22.44,43,43,0,0,0-9.13,4.74c-3.14,2.3-5.47,5-6.4,8.21-2.2,7.49,7.37,7,9.3,6.83a6,6,0,0,0,.91,1,4.77,4.77,0,0,0,3.53,1.11A17.45,17.45,0,0,0,22,48.83a16.29,16.29,0,0,0,10.94,1.88A21.13,21.13,0,0,0,35.84,50c4.25-1.31,7.11-4.53,8.28-9.31a27.67,27.67,0,0,0,.14-10.88c-.15-.9-.32-1.81-.53-2.74C52.82,23.15,55,13.68,40.43,12.6l-.84,0C37.86,7.42,32,1.37,29.8.24,26.86-1.24,11.35,4.39,9,8.41,8.39,9.48,8,15,8.49,19.22Zm31.45.49a23.23,23.23,0,0,1,2,4.88c1.76,6.13,2.15,11.61,1.1,15.86-1.08,4.43-3.61,7.29-7.52,8.5a15.91,15.91,0,0,1-13-1.09A16.21,16.21,0,0,1,15,37.9a.55.55,0,0,0-.64-.43h0a3.69,3.69,0,0,1-3.14-.8,5.63,5.63,0,0,1-1.83-4,2.45,2.45,0,0,1,.82-1.93,3.64,3.64,0,0,1,2.95-.58.55.55,0,0,0,.63-.68,13.38,13.38,0,0,1-.28-3.84c10.64-7.12,23.67-7.22,25.53-6.38a5.51,5.51,0,0,1,.86.47ZM12.4,34.16c.39,0,.53-.33.58-.7.1-.73-.46-1.56-1.07-1.12a1,1,0,0,0,.49,1.82Z"/></g></g></g><g id="Face"><g id="Face_Normal_Face_2" data-name="Face Normal Face 2"><path id="Normal-face-2" class="cls-2" d="M28.17,42.57h0a2.61,2.61,0,0,0,.27.19l.24.15c.17.09.33.17.5.24a5.5,5.5,0,0,0,1,.34,6.16,6.16,0,0,0,2.14.11,7.37,7.37,0,0,0,2-.53A6.08,6.08,0,0,0,36.15,42a.37.37,0,0,0,0-.53.38.38,0,0,0-.5-.06h0a6.25,6.25,0,0,1-3.4,1.05,5.3,5.3,0,0,1-1.73-.2,4.47,4.47,0,0,1-.79-.31,3.1,3.1,0,0,1-.36-.21l-.17-.11-.12-.1-.06-.05a.7.7,0,1,0-.91,1.07l0,0Zm2.28-12.41c.13.92.28,1.83.47,2.74.1.47.21.93.35,1.39.05.13.1.26.16.39a1.26,1.26,0,0,0,.19.28l.05,0h0l.09.06.14.06h0l.08,0h0a3.51,3.51,0,0,1,.57.21,1.29,1.29,0,0,1,.71.59,1.19,1.19,0,0,1,.1.46.76.76,0,0,1-.08.39,1.42,1.42,0,0,1-.79.57,3.77,3.77,0,0,1-.58.14l-.3,0a1.36,1.36,0,0,0-.29.06l-.15.06h0a.39.39,0,0,0-.2.51.38.38,0,0,0,.26.23,2.76,2.76,0,0,0,.4.06,2.54,2.54,0,0,0,.39,0,3.91,3.91,0,0,0,.76-.14,3.06,3.06,0,0,0,.77-.32,2,2,0,0,0,.65-.66,1.88,1.88,0,0,0,.25-.93,2.22,2.22,0,0,0-.17-.88,1.84,1.84,0,0,0-.56-.76,2.7,2.7,0,0,0-.73-.43,4.22,4.22,0,0,0-.69-.21c0-.06-.05-.12-.08-.19a13.15,13.15,0,0,1-.39-1.26c-.23-.87-.43-1.77-.63-2.65h0a.41.41,0,0,0-.48-.3.4.4,0,0,0-.3.44ZM23,34.08a1.45,1.45,0,1,0-1.33-1.56s0,.09,0,.14A1.39,1.39,0,0,0,23,34.08Zm12.34-3.72a1.32,1.32,0,1,0,.82-1.77,1.37,1.37,0,0,0-.82,1.77ZM23.19,26.73c-.45.09-.93.18-1.41.32a5.51,5.51,0,0,0-1.43.61,3.61,3.61,0,0,0-1.14,1.06.48.48,0,0,0,.14.66.49.49,0,0,0,.52,0h0a11.08,11.08,0,0,1,1.06-.6,4.66,4.66,0,0,1,1.16-.33c.82-.13,1.76-.15,2.74-.33h.06a.85.85,0,0,0,.61-1,.83.83,0,0,0-1-.6c-.42.1-.85.18-1.3.26Zm8.94-2-.14.06a.88.88,0,0,0,.84,1.55l0,0A9.53,9.53,0,0,1,34,25.8a5.4,5.4,0,0,1,1.17-.34,3.48,3.48,0,0,1,2.23.48h0a.55.55,0,0,0,.66-.11.54.54,0,0,0,0-.75h0a3.86,3.86,0,0,0-1.37-.8,4.59,4.59,0,0,0-1.61-.19,8,8,0,0,0-1.53.24c-.48.13-.95.28-1.41.44Z"/></g></g></g></g></g></g></svg>