<svg xmlns="http://www.w3.org/2000/svg" viewBox="0 0 38.79 49.54"><defs><style>.cls-1{fill:#fff;}.cls-1,.cls-2{fill-rule:evenodd;}.cls-3{fill:none;stroke:#000;stroke-linecap:round;stroke-width:1.3px;}</style></defs><g id="Layer_2" data-name="Layer 2"><g id="Layer_1-2" data-name="Layer 1"><g id="Group_244" data-name="Group 244"><g id="Master_Poses_Standing" data-name="Master Poses Standing"><g id="Head"><g id="Head_Plain_Hair" data-name="Head Plain Hair"><path id="SKIN-6" class="cls-1" d="M.21,26.73c.12-1.95,1.13-2.82,2.18-2.87.09-.6.19-1.2.31-1.81C5.52,7.1,14.84,5.09,22.64,7,27.8,8.3,34.77,11.93,33.33,25.48c3.11-.77,4.56.93,4.45,3.31-.09,2.14-1.7,3.71-4.88,3.87-.92,7.26-7.71,18.53-20.85,16C4.38,47.11,1.52,38.87,1.87,29.34.45,29.1.14,28,.22,26.73"/><path id="Combined-Shape-2" class="cls-2" d="M25.19.22C6.51-1.87,1.67,11.23,1.88,19c0,1.45.48,4,.42,4.41-2,.07-2.2,2.5-2.24,3.3a2.94,2.94,0,0,0,1.58,3.21l.07,0c-.19,9,2.45,17.64,10.64,19.25a19.49,19.49,0,0,0,3.88.39,15.92,15.92,0,0,0,9.56-3.07,20,20,0,0,0,6.42-8.06c.53-.06,1.74-.83,3.49-5.57l0-.09a4.28,4.28,0,0,0,3-3.95,3.93,3.93,0,0,0-1.26-3.34l-.06,0c.62-4.56,1.27-10.14-.13-14.29C35.36,5.38,30.83.86,25.19.22ZM8,14.08c2.38-.9,2.29,1.55,6.72,2.58,4.23,1,5.51-1.89,9.81-1.71,5.85.24,5,7.24,7.17,9.82A3.63,3.63,0,0,0,33.34,26a1,1,0,0,0,.53,0,5.55,5.55,0,0,1,1.28-.17,2.52,2.52,0,0,1,1.63.5,2.89,2.89,0,0,1,.85,2.41c-.09,2-1.68,3.18-4.35,3.33a.57.57,0,0,0-.53.49,19.88,19.88,0,0,1-7.62,13A15.54,15.54,0,0,1,12.57,48C6.44,46.83.43,39.33,3.67,22.14A31.1,31.1,0,0,1,5.05,17,5.12,5.12,0,0,1,8,14.08ZM34.89,27.21c-.36,0-.65.51-.65,1.14s.29,1.14.65,1.14.64-.51.64-1.14-.28-1.14-.64-1.14ZM2.13,24.52c-.18,1.36-.32,2.73-.39,4.11a2.06,2.06,0,0,1-.55-1.89C1.29,25,1.75,24.6,2.13,24.52Z"/></g></g><g id="Face"><g id="Face_Sad" data-name="Face Sad"><path id="Sad" class="cls-2" d="M14.19,29.94h0a.3.3,0,0,0-.23.28c-.2,3.35-.86,1.75-2.14,3.75A1.61,1.61,0,0,0,12.72,36a.84.84,0,0,0,.24.07c.47.13,1.27.63,1.49,0s-.72-.64-1-.9c-1.74-.84.85-1.45,1-2.41.23-.45.41-2.93-.3-2.82Zm5.44.29a.39.39,0,0,0-.52-.22l0,0c-.44.28-.06.88.05,1.24a2.77,2.77,0,0,0,3,1.8A2.44,2.44,0,0,0,23.69,32c.22-.36.7-1.14.06-1.35a.44.44,0,0,0-.5.22,1.72,1.72,0,0,1-2.29.85,1.59,1.59,0,0,1-.56-.41,4.83,4.83,0,0,1-.77-1.08Zm-9.79-.48a.41.41,0,0,0-.47.2c-.79,1.23-1.81,1.76-2.94.54a.52.52,0,0,0-.79.68,2.46,2.46,0,0,0,2.63,1.16,2.84,2.84,0,0,0,1.86-2.09A.41.41,0,0,0,9.84,29.75Zm16.48-2a5.74,5.74,0,0,0-5.53-2.48,5.57,5.57,0,0,0-1.06.23A.57.57,0,0,0,20,26.57a8.1,8.1,0,0,1,1.77-.1,5.55,5.55,0,0,1,3.76,1.85c.34.27.66,1.16,1.19.76C27.09,28.7,26.49,28.08,26.32,27.71ZM9.86,24.86a5.31,5.31,0,0,0-6.08,2.53.39.39,0,0,0,.61.47,7.68,7.68,0,0,1,1.49-1.23,6.28,6.28,0,0,1,4.64-.46.53.53,0,0,0,.64-.4h0C11.28,25.06,10.32,25,9.86,24.86Z"/><path id="Path_210" data-name="Path 210" class="cls-3" d="M17.06,41.38a6.24,6.24,0,0,1-3.52.89,4.5,4.5,0,0,1-3.28-1.38"/></g></g></g></g></g></g></svg>