<svg xmlns="http://www.w3.org/2000/svg" viewBox="0 0 61.5 49.8"><defs><style>.cls-1{fill:#fff;}.cls-1,.cls-2,.cls-3{fill-rule:evenodd;}.cls-3{fill:#d82c20;}</style></defs><g id="Layer_2" data-name="Layer 2"><g id="Layer_1-2" data-name="Layer 1"><g id="Head"><g id="Head_Bun_2" data-name="Head Bun 2"><g id="Bun"><path id="SKIN-3" class="cls-1" d="M58.28,24.29c-.18-13.4-13.62-14.47-19.94-13-5.19,1.19-10.86,5.67-10.26,14.4-3.12-.28-4.76,1.2-4.76,3.3s.5,4.14,4.37,4.14c.37,6.41,4.47,17.95,20.48,15.9,8.17-1,10.27-13.77,10.12-24.71"/><path id="ink" class="cls-2" d="M40.69,3C44.52-.4,47.34-.66,52.38,1c10.13,3.31,10.07,11,7.84,19.23-1.12,4.14,4.87,11-2.35,17.58l-.33.32c-1.36,5.68-4,10.76-9.3,11.43a28.51,28.51,0,0,1-3.7.25,17.17,17.17,0,0,1-11.3-3.67,14.51,14.51,0,0,1-1.64-1.59,11.09,11.09,0,0,1-6.48-5.42,5.43,5.43,0,0,0-2.8-2.82C19.56,38.53,21.27,45,16.2,47.64c-1.75.92-6.87,1.32-7.31-3.84-2.14,1.63-4.54.94-6.63-.76a6.08,6.08,0,0,1,5-10.69,4.4,4.4,0,0,1,.88-5.57A5.82,5.82,0,0,1,14,25.9c1.43.55,3.47,1,4.81,2,.48-2.9,2-5.62,2.09-8.17a7.11,7.11,0,0,1,.1-.79c.18-3.07.55-8,3.73-12.23C29.17.72,36.93,1.77,40.69,3Zm3,8.37C42.83,20,32.35,26.48,28,26.22c-.34,0-.68,0-1,0a3.65,3.65,0,0,0-2.35.83,2.57,2.57,0,0,0-.8,1.94c0,1.81.3,3.58,3.81,3.58a.56.56,0,0,1,.56.52c.11,1.84.84,8.16,5.71,12.2,3.46,2.87,8.22,3.94,14.15,3.17,3.48-.44,6.07-3.22,7.72-8.26s2-11.49,1.91-15.88-1.54-7.62-4.38-9.85a16.76,16.76,0,0,0-9.64-3.09Zm-17,16.85c1.36-.13,1,.93.45,1.28a.81.81,0,0,1-.92-.26.75.75,0,0,1,.4-1l.07,0Z"/><path id="band" class="cls-3" d="M22.49,36.34c-1.92-.53-3.16-2.6-3.63-4.74a8.42,8.42,0,0,1,.05-4.4c-4.49-2.53-3.08,6.51-1.9,8.45.73,3,6.07,5.19,5.48.69"/></g></g></g><g id="Face"><g id="Face_Blow_Kiss" data-name="Face Blow Kiss"><path id="Blow-Kiss" class="cls-2" d="M46.2,36.43a1.39,1.39,0,0,1,.78.08,1.35,1.35,0,0,1,.74,1.39,1.63,1.63,0,0,1-.3.72h0l0,0a2.11,2.11,0,0,1,.5.44,2.06,2.06,0,0,1,.4,1,1.66,1.66,0,0,1-1,1.77,2.61,2.61,0,0,1-.92.19,5.05,5.05,0,0,1-1.63-.26.56.56,0,0,1,.33-1.06h0a4.49,4.49,0,0,0,1.26.21,1.45,1.45,0,0,0,.51-.1.62.62,0,0,0,.29-.24.57.57,0,0,0,.06-.36.8.8,0,0,0-.17-.4.7.7,0,0,0-.75-.26.56.56,0,0,1-.36-1.05h0a1.64,1.64,0,0,0,.68-.44.53.53,0,0,0,.15-.53.42.42,0,0,0-.46-.28,2,2,0,0,0-.86.3h0l0,0a.33.33,0,0,1-.37-.54A2.63,2.63,0,0,1,46.2,36.43Zm-.28-8.57a.29.29,0,0,1,.35-.22.3.3,0,0,1,.23.26h0A13.29,13.29,0,0,0,46.75,30a5.09,5.09,0,0,0,.27.92.5.5,0,0,0,.08.12h0s0,0,0,0h0l.07,0,.44.24a3.14,3.14,0,0,1,1,.76,1.36,1.36,0,0,1,.33.81,1.32,1.32,0,0,1-.25.86,2.51,2.51,0,0,1-1.09.81,3.64,3.64,0,0,1-1.18.28.42.42,0,0,1-.46-.4.43.43,0,0,1,.31-.45h0a4.52,4.52,0,0,0,.88-.36,1.55,1.55,0,0,0,.61-.5.28.28,0,0,0,0-.16.31.31,0,0,0-.09-.18,2.47,2.47,0,0,0-.69-.51l-.49-.3-.15-.12-.11-.09a.76.76,0,0,0-.08-.11,1.42,1.42,0,0,1-.17-.35,4.7,4.7,0,0,1-.25-1.17,8.55,8.55,0,0,1,.09-2.26Zm-7.08.72A1.42,1.42,0,0,1,41.32,30a1.45,1.45,0,0,1-1,.7,1.35,1.35,0,0,1-1.51-2.07Zm12.4-.39a1.41,1.41,0,1,1,2.47,1.37,1.4,1.4,0,0,1-1,.7,1.35,1.35,0,0,1-1.69-.89,1.37,1.37,0,0,1,.19-1.18ZM39.33,24.67h.15a3.28,3.28,0,0,1,1.2.23.51.51,0,0,1,.28.67.49.49,0,0,1-.41.31h-.06c-.32,0-.68.05-1,.06s-.67,0-1,.05a6.1,6.1,0,0,0-1.94.48h0a.39.39,0,0,1-.53-.17.4.4,0,0,1,.12-.49,4.15,4.15,0,0,1,1-.67,5.17,5.17,0,0,1,1.15-.38,5.42,5.42,0,0,1,1.2-.11Zm11.52-.12a5.15,5.15,0,0,1,1.11,0,4.11,4.11,0,0,1,1.09.25,3.28,3.28,0,0,1,1,.55.39.39,0,0,1-.35.69h0a5.13,5.13,0,0,0-1.73-.25,8.47,8.47,0,0,0-.88.07l-.89.06H50a.53.53,0,0,1-.5-.53h0a.53.53,0,0,1,.25-.43,2.92,2.92,0,0,1,1.06-.37Z"/></g></g></g></g></svg>