<svg xmlns="http://www.w3.org/2000/svg" viewBox="0 0 57.48 54.48"><defs><style>.cls-1{fill:#fff;}.cls-1,.cls-2{fill-rule:evenodd;}</style></defs><g id="Layer_2" data-name="Layer 2"><g id="Layer_1-2" data-name="Layer 1"><g id="Head"><g id="Head_Short_Hair" data-name="Head Short Hair"><path id="SKIN-5" class="cls-1" d="M23.67,8.17c9.86,0,17.19,7.33,18.59,14.09,3.1,0,5.36,2,5.36,4.79,0,1.79.56,5.07-3.95,6.76-1.12,9-11.29,15.68-20.91,13.32C9,43.74,10.07,34.93,11,24.5S13.81,8.17,23.67,8.17Z"/><path id="Combined-Shape-2" class="cls-2" d="M49.94,23.44C46.59,10.07,38.39-.39,26.74,0c-5.32.19-7.35,2-8.11,4.28-3.46.55-7.55,4-7.89,10.82C10.07,28.17,5.88,30.25,2.3,34.52c-3.37,4-4.13,14.95,5.41,14.24,3.4,5.94,12.35,4.06,13.13-1.12l.66.11a30.17,30.17,0,0,0,4.25.32,23.23,23.23,0,0,0,6.37-.74c.28,2,1.56,7.34,8.3,5.71,6,3.34,17.22,1.14,17.06-9.66C57.35,34.44,53.28,36.81,49.94,23.44ZM19.05,11.22a8.63,8.63,0,0,0,2.18,1.95,11.76,11.76,0,0,0,7.51,2,12.87,12.87,0,0,1,6.75,1.42c4,2.08,5.3,9,5.31,9.05a.55.55,0,0,0,.47.46h.08a.57.57,0,0,0,.51-.31,3.53,3.53,0,0,1,1.21-1.25,3.8,3.8,0,0,1,1.29-.26,2.3,2.3,0,0,1,1.36.42,3.28,3.28,0,0,1,1.15,2.84c-.08,1.91-.92,4.19-4.44,4.19a.55.55,0,0,0-.56.53c-.1,1.68-.79,7.48-5.46,11.31-3.57,2.92-8.53,4-14.76,3.08a9.68,9.68,0,0,1-6.86-4.17c-2.93-4.25-3.53-11.52-1.62-19.94C14.66,16,16.35,12.71,19.05,11.22ZM44.42,26.31c-.49-.1-1.19.11-1.13,1.28a1,1,0,0,0,.84,1,.87.87,0,0,0,.53-.1c.69-.48.32-2.11-.24-2.22Z"/></g></g><path id="Awakward" class="cls-2" d="M28.58,40.56a1.41,1.41,0,0,0-.31-1.76A2.47,2.47,0,0,0,27,38.32a4.62,4.62,0,0,0-1.85.14,6.39,6.39,0,0,1-4.27.1,2.2,2.2,0,0,0-2.21.23,1.62,1.62,0,0,0-.29,1.94c.57,1.23,2.09,2,4.09,2.15C23.67,42.94,27.61,43,28.58,40.56Zm-9.14-.17a.78.78,0,0,1,.06-.89,1.06,1.06,0,0,1,1,0,7.63,7.63,0,0,0,5.1-.09,2.68,2.68,0,0,1,1.89.12c.15.12.15.36,0,.7-.71,1.77-4,1.73-5,1.67a3.89,3.89,0,0,1-.49,0,3.15,3.15,0,0,1-2.59-1.46Zm2.63-13.28h0a.33.33,0,0,0-.27.35h0a20.86,20.86,0,0,1,0,2.5,9.94,9.94,0,0,1-.13,1.21,5.05,5.05,0,0,1-.12.56,1.43,1.43,0,0,1-.08.22h0a3.52,3.52,0,0,0-1.2.89,2.26,2.26,0,0,0-.44.73,1.73,1.73,0,0,0-.1,1,1.45,1.45,0,0,0,.6.85,2.6,2.6,0,0,0,.75.36,4.53,4.53,0,0,0,.75.15,2.31,2.31,0,0,0,.37,0,.56.56,0,0,0,.38-.05.48.48,0,0,0,.13-.67.45.45,0,0,0-.09-.1h0l-.05,0a.46.46,0,0,0-.3-.08L22,35a3.58,3.58,0,0,1-.56-.16,1.72,1.72,0,0,1-.46-.25.36.36,0,0,1-.16-.22.8.8,0,0,1,.07-.34,1.36,1.36,0,0,1,.26-.41A3.24,3.24,0,0,1,22,32.9h0l.05,0a1,1,0,0,0,.39-.5c0-.12.08-.25.11-.38a5.36,5.36,0,0,0,.1-.7,11.63,11.63,0,0,0,0-1.32,17.34,17.34,0,0,0-.25-2.59.32.32,0,0,0-.37-.26Zm8.52,1.13c.77-1.66-2.26-2.81-2.65-.85a1.92,1.92,0,0,0,.35,1.06,1.36,1.36,0,0,0,1.9.28,1.38,1.38,0,0,0,.41-.49ZM17.42,26.63a1.22,1.22,0,1,0-1.3,1.8,1.18,1.18,0,0,0,1.47-.77A1.15,1.15,0,0,0,17.42,26.63Z"/></g></g></svg>