<svg xmlns="http://www.w3.org/2000/svg" viewBox="0 0 49.37 57.07"><defs><style>.cls-1{fill:#fff;}.cls-1,.cls-2,.cls-3{fill-rule:evenodd;}.cls-3{fill:#d82c20;}</style></defs><g id="Layer_2" data-name="Layer 2"><g id="Layer_1-2" data-name="Layer 1"><g id="Master_Poses_Standing" data-name="Master Poses Standing"><g id="Master_Poses_Standing-2" data-name="Master Poses Standing-2"><g id="Head"><g id="Head_Bun_1" data-name="Head Bun 1"><path id="SKIN-3" class="cls-1" d="M6.55,30.8C8.4,15.49,18.49,14.61,25.77,15.93,31.57,17,39,21.77,38.34,31.41a3.94,3.94,0,0,1,5.4,3.11c.43,2.6-.94,7-5.24,6.24-.94,7.45-6.1,16-20.14,14.61C7.73,54.28,4.87,44.73,6.55,30.8"/><path id="Combined-Shape" class="cls-2" d="M48.09,4.55c-2.94-6.17-13.45-6.28-16.3,1,1.49.64,5.44,2.39,5.49,4.05C30.85,4.23,9.53,1.73,3,21.13.94,27.85-.33,51.76.08,53.9A61.63,61.63,0,0,0,13,55.27a4.46,4.46,0,0,0,.17-.7c5.52,2.56,13.55,2.16,18.31-1-.22,1.93,0,2.77-.15,3.35C36,57.65,43,55.76,43,55.76S55,31.29,43.64,17C46.3,16.37,51.88,12.52,48.09,4.55ZM19.35,19.61c.45.61-.37,4.34-.59,5.63,4.07,2,12.76,3,17.65,2.09.18,3-2,6.92,1.81,4.57,4.14-2.55,6.27,4.4,3.42,7.16a4.83,4.83,0,0,1-3.75,1.62,16.5,16.5,0,0,1-5.87,11c-4,3.74-17.24,5.25-21.87-1.08-3.94-4-4.53-17.91-1.51-25.94a57.87,57.87,0,0,0,8.22.38c1-1.4,2.1-4.7,2.49-5.43ZM39.91,34.47c-.74-.37-1,.46-.73,1.23.12.39.1.91.51.82a1.1,1.1,0,0,0,.22-2.05Z"/></g></g><g id="Face"><g id="Face_Grinning" data-name="Face Grinning"><g id="grinning"><path id="face-2" class="cls-2" d="M24.52,46.06c-4,1.69-10.32-2.28-13.19-.4-4.09,7.35,22.13,7.17,14.58.2A1.88,1.88,0,0,0,24.52,46.06Zm-6.09,1.21c.63.11,1.27.2,1.91.25a20.29,20.29,0,0,0,.06,2.7,19.88,19.88,0,0,1-2-.08l-.3,0a6.26,6.26,0,0,0,.37-2.84Zm4.29.28A23.08,23.08,0,0,0,23,50,12.52,12.52,0,0,1,21,50.2a19.22,19.22,0,0,0-.12-2.63,12.3,12.3,0,0,0,1.82,0Zm-6.46-.7,1.64.32a6.49,6.49,0,0,0-.33,2.23,1.35,1.35,0,0,0,.07.66,17.31,17.31,0,0,1-2.12-.43c.64-.69.54-1.89.74-2.79Zm7.31.58c.69,0,1.8-.86,2.27-.42A1.37,1.37,0,0,1,25.77,49a1.56,1.56,0,0,1-.2.16,5.93,5.93,0,0,1-1.73.7c0-.06-.2-2.43-.27-2.38Zm-9.48-1c.45.07.91.16,1.37.26a7.33,7.33,0,0,0-.55,2.78l-.68-.25a7.06,7.06,0,0,1-.68-.33A20.76,20.76,0,0,0,14.09,46.41Zm-1.54,1.75c-1-1.18-.59-2.17,1-1.82a21,21,0,0,0-.51,2.22,3.25,3.25,0,0,1-.5-.4Zm6.82-9.58c.12-.57.72-6.92-.7-4.81a37.87,37.87,0,0,1-.5,4.63c-3.36,1.28-2.1,5.14,1.32,4.75a.62.62,0,0,0,.59-.64.6.6,0,0,0-.59-.59c-.66,0-1.66-.1-2-.68C17.05,39.54,19.27,39.93,19.37,38.58ZM29,35.42a3.44,3.44,0,0,0-3-1.48c-2.47.19-2.29,2.62-.72,1.76a1.38,1.38,0,0,1,.86-.46c2.3-.3,2.26,2.65,3.33,2.31.81-.48-.11-1.55-.43-2.13ZM13.28,31.76c-1.14-.31-4.45,1.28-3.14,2.59a.62.62,0,0,0,.77-.2c1.14-1.67,3.61-1.31,4.79.17a.44.44,0,0,0,.63,0c.46-1.22-1.94-2.54-3-2.58Zm18-1c-.76-.83-4.85-1.5-4.92,0,.25.52,1,.21,1.44.36,1,.09,2,.53,3,.68a.57.57,0,0,0,.43-1Zm-15.87-1c1.76-.52-1.23-1.67-1.93-1.47-.9-.21-3.75,1.12-1.82,1.73C12.92,29.85,14.16,29.42,15.42,29.8Z"/><path id="dots" class="cls-3" d="M26,41.3a.64.64,0,0,0-.54,1.17A.64.64,0,0,0,26,41.3Zm2.92,1.11c1.2-.2-.13-1.75-.54-.76a.48.48,0,0,0,.07.68.47.47,0,0,0,.47.08ZM12.86,38.7a.59.59,0,0,0-.57.62.59.59,0,0,0,.56.56.59.59,0,0,0,0-1.18Zm14.46.41a.39.39,0,0,0-.51.21.38.38,0,0,0,.18.49.39.39,0,0,0,.51-.22.39.39,0,0,0-.18-.48Zm-2.26-.78a.53.53,0,0,0-.7.29.51.51,0,1,0,.94.37.53.53,0,0,0-.24-.66Zm-14.31-.27c.05-1-1.66-.22-.74.42a.43.43,0,0,0,.62,0,.42.42,0,0,0,.12-.41Zm4.08-1.44a.49.49,0,1,0,.47.48.5.5,0,0,0-.47-.48Zm-2.18-.24a.36.36,0,1,0,.34.34A.36.36,0,0,0,12.65,36.38Z"/></g></g></g></g></g></g></g></svg>