<svg xmlns="http://www.w3.org/2000/svg" viewBox="0 0 43.74 57.75"><defs><style>.cls-1{fill:#fff;}.cls-1,.cls-2{fill-rule:evenodd;}</style></defs><g id="Layer_2" data-name="Layer 2"><g id="Layer_1-2" data-name="Layer 1"><g id="Master_Poses_Standing" data-name="Master Poses Standing"><g id="Master_Poses_Standing-2" data-name="Master Poses Standing-2"><g id="Head"><g id="Head_No_Hair" data-name="Head No Hair"><g id="No-Hair"><path id="SKIN-6" class="cls-1" d="M43.08,23.61c-.13-2.21-1.27-3.19-2.46-3.24-.1-.69-.21-1.37-.34-2.05C37.09,1.42,26.57-.85,17.77,1.34,11.94,2.78,4.07,6.88,5.7,22.19c-3.51-.87-5.16,1.06-5,3.75.11,2.42,1.93,4.18,5.51,4.37,1,8.2,8.72,20.94,23.55,18,8.65-1.71,11.89-11,11.5-21.79,1.59-.27,1.94-1.56,1.86-2.94"/><path id="shape" class="cls-2" d="M41.81,25.78c-.07-1.56-.22-3.12-.43-4.65.42.09.94.5,1.07,2.51a2.36,2.36,0,0,1-.63,2.14M29.6,47.7a17.5,17.5,0,0,1-14.18-2.81A22.42,22.42,0,0,1,6.81,30.23a.64.64,0,0,0-.6-.56c-3-.16-4.8-1.53-4.9-3.76a3.21,3.21,0,0,1,.95-2.72,2.84,2.84,0,0,1,1.84-.57,5.82,5.82,0,0,1,1.44.2.65.65,0,0,0,.78-.47.55.55,0,0,0,0-.22C5.13,10.79,8.92,4.2,17.92,2l.83-.19a.25.25,0,0,0-.11.17.32.32,0,0,0,.25.39.33.33,0,0,0,.38-.23.3.3,0,0,0-.22-.38h0C22.54,1,27.21.9,31.31,3.53s7,7.7,8.34,14.91c3.66,19.42-3.13,27.91-10,29.27m-12-47C21.46-.24,27.07-.71,32,2.45c4.49,2.88,7.48,8.18,8.91,15.75h0l.1.54.18,1.09c2.31.09,2.48,2.83,2.53,3.74.07,1.18,0,2.85-1.78,3.62l-.08,0c.22,10.19-2.77,19.92-12,21.75a22.21,22.21,0,0,1-4.38.44,18.14,18.14,0,0,1-10.8-3.47,23.81,23.81,0,0,1-9-15C2.23,30.57.15,28.75,0,26A4.43,4.43,0,0,1,1.45,22.2,4.38,4.38,0,0,1,5,21.41C4,10,8.25,3.05,17.62.71ZM4.4,24.17c-.41,0-.73.58-.73,1.29s.32,1.29.73,1.29.73-.58.73-1.29S4.8,24.17,4.4,24.17ZM13.18,12a.4.4,0,0,0-.18.54.41.41,0,0,0,.52.19.4.4,0,0,0-.34-.73ZM7.75,12a.2.2,0,0,0-.17.2.17.17,0,1,0,.34,0A.19.19,0,0,0,7.75,12Zm16.28.2.06,0a.19.19,0,0,0,.19-.17.15.15,0,0,0,0-.09l0,0c-.16-.4-.69.22-.21.29ZM9.85,10v.08a.22.22,0,0,0,.22.22.2.2,0,0,0,.11,0l.06,0C10.74,9.89,9.83,9.48,9.85,10Zm24.57-.91a.31.31,0,0,0-.1.42.31.31,0,0,0,.36.13.31.31,0,0,0,.1-.42.3.3,0,0,0-.36-.13ZM17.65,8.67a.47.47,0,0,0,.4.86.47.47,0,0,0-.4-.86Zm3.77,0a.17.17,0,0,0-.16.19.17.17,0,0,0,.16.17.18.18,0,0,0,.18-.18.17.17,0,0,0-.17-.18Zm7.73-.49v.16a.44.44,0,0,0,.45.42.36.36,0,0,0,.2-.06l.12-.08c.95-.67-.82-1.46-.77-.44Zm-15.42,0a.17.17,0,0,0,.14.3.16.16,0,0,0,.07-.23.18.18,0,0,0-.21-.08ZM24.91,6.8a.33.33,0,0,0,.26.39A.34.34,0,0,0,25.55,7a.33.33,0,0,0-.27-.38.32.32,0,0,0-.37.22Zm-13.45,0A.17.17,0,0,0,11.3,7a.17.17,0,0,0,.16.17A.19.19,0,0,0,11.64,7a.18.18,0,0,0-.18-.18Zm8.25-2.07a.51.51,0,1,0,.51.5.5.5,0,0,0-.51-.5Zm12.06.32v0a.17.17,0,0,0,.17.16l.07,0,.05,0c.36-.25-.31-.55-.29-.17Zm-4.24-.82a.38.38,0,0,0-.35.39.36.36,0,0,0,.36.35.38.38,0,0,0,.37-.37.37.37,0,0,0-.38-.37ZM15.71,4a.4.4,0,0,0-.17.55A.4.4,0,1,0,15.72,4h0Zm7.6-1.11a.18.18,0,0,0-.17.19.19.19,0,0,0,.17.17.18.18,0,1,0,0-.36Z"/></g></g></g><g id="Face"><g id="Face_Happy" data-name="Face Happy"><path id="Happy" class="cls-2" d="M32.39,35.69a1,1,0,0,1,1.11.43c1,2.26-2.14,6-6.63,5.93-3,.15-6.6-1.66-6.75-3.72-.14-.89.65-2.41,1.88-2.19a30.09,30.09,0,0,0,5,.14A38.69,38.69,0,0,0,32.39,35.69Zm-.22,1a50.62,50.62,0,0,1-10.56.44,3,3,0,0,0,0,1.12c1.66.94,8.46.76,10.62-.61a1,1,0,0,0,0-.94ZM26.3,26.8a.35.35,0,0,1,.26.31h0a9,9,0,0,0,.31,2,2,2,0,0,0,.16.4.66.66,0,0,0,.17.23l.38.25a5.71,5.71,0,0,1,.48.32,2.69,2.69,0,0,1,.91,1,1.92,1.92,0,0,1,.16.85,1.52,1.52,0,0,1-.36.83,3,3,0,0,1-1.12.75,8.07,8.07,0,0,1-1.09.33.5.5,0,0,1-.6-.38.51.51,0,0,1,.27-.56h0c.32-.16.64-.3.92-.46a1.93,1.93,0,0,0,.63-.47.24.24,0,0,0,.06-.15.46.46,0,0,0-.05-.2,1.79,1.79,0,0,0-.5-.56l-.41-.3c-.17-.12-.33-.25-.49-.38A2,2,0,0,1,26,30a2.8,2.8,0,0,1-.17-.63,6.15,6.15,0,0,1,.1-2.3.34.34,0,0,1,.4-.26Zm-8-1.18c.15,0,.3,0,.45,0a4,4,0,0,1,.91.2,3.19,3.19,0,0,1,.86.49,2.1,2.1,0,0,1,.37.36,1.93,1.93,0,0,1,.17.21,1.27,1.27,0,0,1,.07.12l.09.16a.73.73,0,0,1-1.33.6s0,0,0,0l0-.05-.07-.08a1,1,0,0,0-.18-.18,1.72,1.72,0,0,0-.47-.28,2.69,2.69,0,0,0-.57-.17l-.31,0L18,27a2.48,2.48,0,0,0-1.16.34,3.39,3.39,0,0,0-.53.38,4.08,4.08,0,0,0-.46.47l0,0a.46.46,0,0,1-.63.06.46.46,0,0,1-.11-.54,4.52,4.52,0,0,1,.49-.74,3.64,3.64,0,0,1,.63-.61,3.37,3.37,0,0,1,1.69-.72A3.55,3.55,0,0,1,18.3,25.62Zm15.07-.46a3.27,3.27,0,0,1,1.36.6,3.13,3.13,0,0,1,.91,1.13.49.49,0,0,1-.73.61l-.1-.07c-.11-.07-.26-.2-.4-.28A2.67,2.67,0,0,0,34,26.9a2.9,2.9,0,0,0-.87-.3,2.22,2.22,0,0,0-.85,0,3,3,0,0,0-.84.4l0,0a.64.64,0,0,1-.8-1,3.3,3.3,0,0,1,1.24-.81,3,3,0,0,1,1.55-.11Zm-14.1-4.32c.2,0,.41,0,.61.05a.8.8,0,0,1-.17,1.6h-.07l-.41,0h-.46c-.3,0-.61,0-.91.09a8.25,8.25,0,0,0-3.45,1.34A11.77,11.77,0,0,0,12.9,25.1l0,0a.41.41,0,0,1-.57,0,.39.39,0,0,1,0-.5,10.2,10.2,0,0,1,.64-.87,8,8,0,0,1,.76-.78,8.22,8.22,0,0,1,3.92-2,8.42,8.42,0,0,1,1.11-.14c.19,0,.38,0,.57,0Zm15.09.35a6.36,6.36,0,0,1,2,.95,5.36,5.36,0,0,1,.82.69,3.33,3.33,0,0,1,.36.39c.12.14.23.27.33.41a.43.43,0,0,1-.07.61.42.42,0,0,1-.53,0l0,0a9.34,9.34,0,0,0-1.54-1A6.18,6.18,0,0,0,34,22.58a6.56,6.56,0,0,0-1.77-.16l-.44,0-.44.06-.44.08a2.84,2.84,0,0,0-.39.09l-.06,0a.76.76,0,0,1-.95-.5.75.75,0,0,1,.5-1,3.62,3.62,0,0,1,.56-.17l.54-.1a8,8,0,0,1,1.09-.09,7.22,7.22,0,0,1,2.17.32Z"/></g></g><g id="Facial_Hair" data-name="Facial Hair"><g id="Facial_Hair_Beard_Moustache" data-name="Facial Hair Beard Moustache"><path id="Beard-Moustache" class="cls-2" d="M29,43.48c-1,.21-1.52,1.38-4.23,1.55-2.94.19-4.47-.67-4.52-1.74-.09-2.44,4.39-4.09,8.66-4.17,5.46.2,6.23.49,6.63,1.92.5,1.82-.26,2.8-1.42,3.09C30.94,44.91,30.4,43.17,29,43.48Zm8.81-4.41a7.38,7.38,0,0,0-5.53-3.48c-2.19-.34-3.49.84-4.19.85a9,9,0,0,0-7.52.76c-2,1-2.56,2.88-3.2,4.81-.49-.23-.85.42-3.84-1s-6.07-6.68-6.94-7.42c-.67-.57-.81,5,1.49,11.27,1.75,4.77,5.28,9,9.23,10.87,7.79,3.68,19.26,2,22.55-3.16,4-6.38,2.11-19.25,1-21.18S40.47,38.64,37.76,39.07Z"/></g></g></g></g></g></g></svg>