<?xml version="1.0" encoding="utf-8"?>
<!-- Generator: Adobe Illustrator 24.1.2, SVG Export Plug-In . SVG Version: 6.00 Build 0)  -->
<svg version="1.1" id="Layer_1" xmlns="http://www.w3.org/2000/svg" xmlns:xlink="http://www.w3.org/1999/xlink" x="0px" y="0px"
	 viewBox="0 0 1440 752" style="enable-background:new 0 0 1440 752;" xml:space="preserve">
<style type="text/css">
	.st0{fill:#A080FF;}
	.st1{fill:url(#SVGID_1_);}
</style>
<path class="st0" d="M670.3,195C760.9,115.8,745.8,32,727,0H0v755l1441-3.7v-115c-3.6-4.1-8-8.1-13.4-11.9
	c-71.5-50-96.3-51-132.1-52c-28.6-0.8-60.9,19.5-76,29.5c-15.1,10-55.4,36.5-86.4,36.5c-62.8-3.2-186.8-0.6-214.5-74
	s-54.6-79-68.5-86c-61.6-23-86.4-58.5-98.3-82.5c-28.8-67-55.6-75-72.5-81c36.7-12,41.7-48,41.7-65S708.1,208,670.3,195z"/>
<linearGradient id="SVGID_1_" gradientUnits="userSpaceOnUse" x1="0" y1="379" x2="1646.41" y2="379">
	<stop  offset="0" style="stop-color:#410094"/>
	<stop  offset="1" style="stop-color:#FFF0BE;stop-opacity:0"/>
</linearGradient>
<path class="st1" d="M1646.4,755H0V3h567.3c7.5,18-2.4,18.5-7.9,24c20,1,102.6,30,117.1,99.9c14.5,70-27,108.9-45.6,123.4
	c20-3.5,36.5,6.7,45.6,19c8.6,11.7,4.5,34.7,4,45.7c75-33.7,85.3,51,108.1,90.8c22.7,39.8,49.3,59.8,75.3,48.3
	c67.8-22.3,110.5,56.5,186.2,125.1s284.2-75.3,440.5-29.8C1490.6,549.3,1509.3,620.1,1646.4,755z"/>
</svg>
