<svg width="1440" height="752" viewBox="0 0 1440 752" fill="none" xmlns="http://www.w3.org/2000/svg">
<path d="M670.348 195C760.919 115.8 745.824 32 726.955 0H0V755L1441 751.333V636.375C1437.44 632.267 1433.02 628.294 1427.59 624.5C1356.09 574.5 1331.26 573.5 1295.51 572.5C1266.91 571.7 1234.6 592 1219.54 602C1204.47 612 1164.12 638.5 1133.14 638.5C1070.37 635.3 1034.49 616.833 1009 607.5C983.508 598.167 928.52 584.942 918.625 564.5C889.825 505 864.004 485.5 850.101 478.5C788.528 455.5 763.7 420 751.783 396C722.983 329 696.169 321 679.286 315C716.031 303 720.997 267 720.997 250C720.997 233 708.086 208 670.348 195Z" fill="#A080FF"/>
<path d="M1099.98 281.315C1015.88 397.638 899.254 620.09 1036.41 755H0V3H567.273C574.781 20.988 564.882 21.4877 559.376 26.9841C579.398 27.9834 661.99 56.9641 676.506 126.918C691.022 196.871 649.476 235.845 630.955 250.336C650.978 246.838 667.425 257.042 676.506 269.323C685.141 281 681.001 304.007 680.5 315C755.5 281.315 799.476 302.801 821 324.286C843.525 345.772 890.745 335.779 916.774 324.286C984.85 301.901 1033.9 199.869 1082.96 199.869L1118.47 236.752C1119.48 234.585 1120 234.716 1120 238.344L1118.47 236.752C1115.72 242.645 1109.35 265.533 1099.98 281.315Z" fill="url(#paint0_linear)"/>
<path d="M1036.41 755C899.254 620.09 1015.88 397.638 1099.98 281.315C1112.79 259.729 1120 224.852 1120 238.344L1082.96 199.869C1033.9 199.869 984.85 301.901 916.774 324.286C890.745 335.779 843.525 345.772 821 324.286C799.476 302.801 755.5 281.315 680.5 315C681.001 304.007 685.141 281 676.506 269.323C667.425 257.042 650.978 246.838 630.955 250.336C649.476 235.845 691.022 196.871 676.506 126.918C661.99 56.9641 579.398 27.9834 559.376 26.9841C564.882 21.4877 574.781 20.988 567.273 3L0 3V755H1036.41Z" stroke="url(#paint1_linear)"/>
<g clip-path="url(#clip0)">
<path d="M1330.24 70.5001C1330.24 82.8945 1337.51 93.6056 1348.06 98.6814L1332.98 57.7567C1331.22 61.651 1330.24 65.9606 1330.24 70.5001ZM1383.2 68.92C1383.2 65.0501 1381.8 62.3701 1380.59 60.2842C1378.99 57.7048 1377.49 55.5205 1377.49 52.9412C1377.49 50.0628 1379.69 47.3834 1382.8 47.3834C1382.94 47.3834 1383.07 47.4007 1383.21 47.4084C1377.58 42.3046 1370.09 39.1884 1361.86 39.1884C1350.81 39.1884 1341.09 44.8011 1335.44 53.3023C1336.18 53.3243 1336.88 53.3398 1337.47 53.3398C1340.78 53.3398 1345.9 52.9424 1345.9 52.9424C1347.6 52.8429 1347.81 55.3221 1346.1 55.5217C1346.1 55.5217 1344.39 55.7213 1342.48 55.8202L1354 89.7375L1360.92 69.1858L1355.99 55.8191C1354.29 55.7201 1352.68 55.5205 1352.68 55.5205C1350.97 55.4216 1351.17 52.8417 1352.88 52.9412C1352.88 52.9412 1358.1 53.3386 1361.2 53.3386C1364.51 53.3386 1369.63 52.9412 1369.63 52.9412C1371.34 52.8417 1371.54 55.3209 1369.83 55.5205C1369.83 55.5205 1368.12 55.7201 1366.21 55.8191L1377.64 89.4795L1380.79 79.0425C1382.16 74.7114 1383.2 71.6006 1383.2 68.92ZM1362.41 73.2391L1352.93 100.539C1355.76 101.364 1358.75 101.815 1361.86 101.815C1365.54 101.815 1369.07 101.184 1372.36 100.04C1372.27 99.9058 1372.19 99.7634 1372.13 99.6085L1362.41 73.2391ZM1389.6 55.4771C1389.74 56.4745 1389.81 57.5452 1389.81 58.6969C1389.81 61.8744 1389.21 65.4464 1387.41 69.9127L1377.75 97.5666C1387.15 92.1381 1393.47 82.0526 1393.47 70.5007C1393.47 65.0567 1392.07 59.9374 1389.6 55.4771ZM1361.86 34C1341.53 34 1325 50.3738 1325 70.5001C1325 90.6288 1341.53 107.002 1361.86 107.002C1382.18 107.002 1398.72 90.6288 1398.72 70.5001C1398.71 50.3738 1382.18 34 1361.86 34ZM1361.86 105.329C1342.47 105.329 1326.69 89.7047 1326.69 70.5001C1326.69 51.2968 1342.47 35.6737 1361.86 35.6737C1381.25 35.6737 1397.02 51.2968 1397.02 70.5001C1397.02 89.7047 1381.25 105.329 1361.86 105.329Z" fill="white"/>
</g>
<path d="M1264 158C1243.57 158 1227 174.566 1227 195C1227 215.434 1243.57 232 1264 232C1284.43 232 1301 215.434 1301 195C1300.98 174.575 1284.42 158.023 1264 158ZM1264 229.533C1244.93 229.533 1229.47 214.072 1229.47 195C1229.47 175.928 1244.93 160.467 1264 160.467C1283.07 160.467 1298.53 175.928 1298.53 195C1298.51 214.063 1283.06 229.512 1264 229.533Z" fill="white"/>
<path d="M1281.27 180.2H1246.73C1246.05 180.2 1245.5 180.752 1245.5 181.433V208.567C1245.5 209.248 1246.05 209.8 1246.73 209.8H1281.27C1281.95 209.8 1282.5 209.248 1282.5 208.567V181.433C1282.5 180.752 1281.95 180.2 1281.27 180.2ZM1277.94 182.667L1264 194.609L1250.06 182.667H1277.94ZM1247.97 207.333V184.114L1263.2 197.169C1263.66 197.564 1264.34 197.564 1264.8 197.169L1280.03 184.114V207.333H1247.97Z" fill="white"/>
<circle cx="1366.5" cy="350.5" r="2.5" fill="white"/>
<circle cx="1366.5" cy="350.5" r="2.5" fill="white"/>
<circle cx="1246" cy="480" r="6" fill="white"/>
<circle cx="1246" cy="480" r="6" fill="white"/>
<circle cx="886" cy="217" r="8" stroke="white" stroke-width="4"/>
<circle cx="1218" cy="273" r="5" fill="white"/>
<circle cx="1048.5" cy="31.5" r="2.5" fill="white"/>
<circle cx="868.5" cy="99.5" r="3.5" fill="white"/>
<circle cx="868.5" cy="99.5" r="3.5" fill="white"/>
<rect x="1334" y="450" width="5" height="23" rx="2.5" fill="white"/>
<rect x="1348" y="459" width="5" height="23" rx="2.5" transform="rotate(90 1348 459)" fill="white"/>
<rect x="964" y="88" width="5" height="23" rx="2.5" fill="white"/>
<rect x="978" y="97" width="5" height="23" rx="2.5" transform="rotate(90 978 97)" fill="white"/>
<path opacity="0.5" d="M1054.35 240.442C1047.69 244.363 1041.54 249.062 1036.08 254.836C1023.9 267.727 1016.68 283.758 1014.22 301.413C1031.64 297.852 1047.31 289.837 1059.49 276.946C1064.94 271.172 1069.37 264.849 1072.82 257.889L1054.35 240.442Z" fill="#FF8686"/>
<path opacity="0.6" d="M1056.07 242.066C1054.44 243.485 1052.81 245.075 1051.25 246.728C1041.2 257.371 1034.99 269.814 1032.84 281.67C1044.57 278.87 1056.62 271.945 1066.68 261.301C1068.24 259.649 1069.65 258.022 1071.06 256.223L1056.07 242.066Z" fill="#FFEBAC"/>
<path d="M1057.64 243.544C1050.62 250.97 1051.45 261.97 1051.45 261.97C1051.45 261.97 1062.48 262.171 1069.49 254.745L1057.64 243.544Z" fill="white"/>
<path d="M1058.96 246.509L1066.55 253.671C1068.63 255.52 1070.8 257.11 1072.88 258.659C1097.12 251.323 1119.71 237.793 1138.34 218.071C1161.37 193.699 1174.64 163.578 1178.31 132.679C1178.66 129.753 1176.12 127.359 1173.22 127.87C1142.5 133.331 1113.22 148.252 1090.21 172.602C1071.58 192.324 1059.42 215.701 1053.4 240.255C1055.21 242.541 1057 244.527 1058.96 246.509Z" fill="#FFE389"/>
<path d="M1178.36 132.764C1178.4 132.097 1178.41 131.518 1178.24 130.944C1168.88 153.298 1150.82 180.231 1126.46 206.013C1106.91 226.705 1086.39 243.478 1067.73 254.666C1069.45 256.162 1071.16 257.486 1072.86 258.681C1097.1 251.345 1119.69 237.815 1138.32 218.093C1161.41 193.784 1174.65 163.707 1178.36 132.764Z" fill="#E6AE00"/>
<path d="M1083.36 255.081C1078.46 251.874 1073.53 248.047 1068.81 243.592C1064.1 239.136 1060.02 234.448 1056.52 229.723C1055.37 233.186 1054.38 236.796 1053.54 240.38C1055.2 242.37 1057.02 244.505 1058.88 246.426L1066.46 253.587C1068.55 255.437 1070.71 257.026 1072.8 258.576C1076.35 257.681 1079.9 256.487 1083.36 255.081Z" fill="#FDDB6E"/>
<path d="M1158.55 148.788C1163.13 153.118 1167.82 156.845 1172.57 159.906C1175.31 150.992 1177.29 141.972 1178.36 132.764C1178.7 129.837 1176.17 127.443 1173.27 127.954C1164.2 129.606 1155.22 132.048 1146.5 135.277C1149.95 139.832 1153.96 144.457 1158.55 148.788Z" fill="#FDDB6E"/>
<path d="M1117.53 192.199C1125.86 200.063 1138.98 199.691 1146.85 191.366C1154.71 183.042 1154.34 169.918 1146.01 162.053C1137.69 154.189 1124.57 154.561 1116.7 162.886C1108.84 171.21 1109.21 184.334 1117.53 192.199Z" fill="#E0AA00"/>
<path d="M1120.3 189.268C1128.63 197.133 1141.75 196.76 1149.61 188.436C1157.48 180.111 1157.11 166.987 1148.78 159.123C1140.46 151.258 1127.33 151.631 1119.47 159.955C1111.6 168.279 1111.98 181.403 1120.3 189.268Z" fill="#FDDB6E"/>
<path d="M1125.9 183.34C1131.28 188.422 1139.76 188.182 1144.84 182.802C1149.93 177.423 1149.69 168.943 1144.31 163.86C1138.93 158.778 1130.45 159.019 1125.36 164.398C1120.28 169.777 1120.52 178.258 1125.9 183.34Z" fill="#E0AA00"/>
<path d="M1090.37 172.748C1090.72 172.373 1091.14 171.932 1091.49 171.558C1075.6 170.186 1056.44 178.15 1041.41 194.06C1031.71 204.329 1025.34 216.197 1022.81 227.57C1022.02 230.788 1025.44 233.479 1028.4 232.022C1038.83 226.987 1049.16 226.114 1056.42 230.133C1063.01 209.337 1074.36 189.693 1090.37 172.748Z" fill="#F9C520"/>
<path d="M1138.49 218.217C1138.85 217.842 1139.26 217.401 1139.62 217.027C1141.89 232.81 1135.03 252.391 1119.99 268.301C1110.29 278.57 1098.8 285.608 1087.59 288.779C1084.43 289.748 1081.54 286.484 1082.83 283.446C1087.27 272.747 1087.55 262.381 1083.13 255.366C1103.49 247.582 1122.48 235.162 1138.49 218.217Z" fill="#A77F00"/>
<path d="M1123.78 185.588C1129.16 190.67 1137.64 190.429 1142.72 185.05C1147.8 179.671 1147.56 171.19 1142.18 166.108C1136.8 161.026 1128.32 161.267 1123.24 166.646C1118.16 172.025 1118.4 180.506 1123.78 185.588Z" fill="#E0AA00"/>
<path d="M1137.51 163.238L1120.9 169.693C1120.42 170.651 1120.02 171.691 1119.75 172.857L1140.45 164.763C1139.64 164.122 1138.62 163.572 1137.51 163.238Z" fill="#FFE389"/>
<path d="M1146.19 173.564C1145.75 171.025 1144.59 168.635 1142.78 166.67L1119.47 175.717C1119.47 178.269 1120.13 180.888 1121.58 183.098L1146.19 173.564Z" fill="#FFE389"/>
<path d="M1165.86 154.992C1168.1 156.687 1170.33 158.382 1172.63 159.84C1175.38 150.926 1177.35 141.906 1178.42 132.697C1178.46 132.031 1178.47 131.452 1178.3 130.878C1175.03 138.541 1170.88 146.679 1165.86 154.992Z" fill="#E0AA00"/>
<path d="M1075.76 249.613C1073.04 251.427 1070.39 253.047 1067.8 254.729C1069.51 256.224 1071.22 257.548 1072.93 258.743C1076.46 257.7 1079.94 256.443 1083.4 255.165C1080.74 253.482 1078.22 251.645 1075.76 249.613Z" fill="#EABF38"/>
<path d="M1186 124.767C1211.09 107.463 1267.02 79.9112 1290.07 108.135C1318.89 143.415 1392.42 156.015 1435 140.391" stroke="white" stroke-width="5" stroke-dasharray="12 12 12 12 12 12"/>
<defs>
<linearGradient id="paint0_linear" x1="498.558" y1="-244.336" x2="498.558" y2="755" gradientUnits="userSpaceOnUse">
<stop stop-color="#FFDA65"/>
<stop offset="1" stop-color="#FFF0BE" stop-opacity="0"/>
</linearGradient>
<linearGradient id="paint1_linear" x1="498.558" y1="-244.336" x2="498.558" y2="755" gradientUnits="userSpaceOnUse">
<stop stop-color="white"/>
<stop offset="1" stop-color="white" stop-opacity="0"/>
</linearGradient>
<clipPath id="clip0">
<rect width="74" height="73" fill="white" transform="translate(1325 34)"/>
</clipPath>
</defs>
</svg>
