<svg width="54" height="54" viewBox="0 0 54 54" fill="none" xmlns="http://www.w3.org/2000/svg">
<rect x="0.333496" width="53" height="54" rx="26.5" fill="white"/>
<path d="M19.328 28H22.6247V41.5C22.6247 41.8333 22.7895 42 23.1192 42H28.5588C28.8884 42 29.0533 41.8333 29.0533 41.5V28H32.8445C33.0093 28 33.339 27.8333 33.339 27.5L33.8335 22.5C33.8335 22.1667 33.6687 22 33.339 22H29.0533V19C29.0533 18 29.5478 17.5 30.5368 17.5H33.339C33.6687 17.5 33.8335 17.3333 33.8335 17V12.5C33.8335 12.1667 33.6687 12 33.339 12H29.5478H29.3829C27.5698 12 25.9214 12.6667 24.4379 13.8333C23.1192 15 22.4599 16.6667 22.7895 18.5V22.1667H19.328C18.9983 22.1667 18.8335 22.3333 18.8335 22.6667V27.6667C18.9983 27.8333 19.1632 28 19.328 28Z" fill="#5A20D8"/>
</svg>
