<svg width="389" height="158" viewBox="0 0 389 158" fill="none" xmlns="http://www.w3.org/2000/svg">
<path d="M167.559 78.7637H178.756V83H162.285V57.4062H167.559V78.7637ZM190.217 83.3516C187.428 83.3516 185.154 82.4961 183.396 80.7852C181.65 79.0742 180.777 76.7949 180.777 73.9473V73.4551C180.777 71.5449 181.146 69.8398 181.885 68.3398C182.623 66.8281 183.666 65.668 185.014 64.8594C186.373 64.0391 187.92 63.6289 189.654 63.6289C192.256 63.6289 194.301 64.4492 195.789 66.0898C197.289 67.7305 198.039 70.0566 198.039 73.0684V75.1426H185.928C186.092 76.3848 186.584 77.3809 187.404 78.1309C188.236 78.8809 189.285 79.2559 190.551 79.2559C192.508 79.2559 194.037 78.5469 195.139 77.1289L197.635 79.9238C196.873 81.002 195.842 81.8457 194.541 82.4551C193.24 83.0527 191.799 83.3516 190.217 83.3516ZM189.637 67.7422C188.629 67.7422 187.809 68.082 187.176 68.7617C186.555 69.4414 186.156 70.4141 185.98 71.6797H193.047V71.2754C193.023 70.1504 192.719 69.2832 192.133 68.6738C191.547 68.0527 190.715 67.7422 189.637 67.7422ZM211.961 83C211.727 82.543 211.557 81.9746 211.451 81.2949C210.221 82.666 208.621 83.3516 206.652 83.3516C204.789 83.3516 203.242 82.8125 202.012 81.7344C200.793 80.6562 200.184 79.2969 200.184 77.6562C200.184 75.6406 200.928 74.0938 202.416 73.0156C203.916 71.9375 206.078 71.3926 208.902 71.3809H211.24V70.291C211.24 69.4121 211.012 68.709 210.555 68.1816C210.109 67.6543 209.4 67.3906 208.428 67.3906C207.572 67.3906 206.898 67.5957 206.406 68.0059C205.926 68.416 205.686 68.9785 205.686 69.6934H200.605C200.605 68.5918 200.945 67.5723 201.625 66.6348C202.305 65.6973 203.266 64.9648 204.508 64.4375C205.75 63.8984 207.145 63.6289 208.691 63.6289C211.035 63.6289 212.893 64.2207 214.264 65.4043C215.646 66.5762 216.338 68.2285 216.338 70.3613V78.6055C216.35 80.4102 216.602 81.7754 217.094 82.7012V83H211.961ZM207.76 79.4668C208.51 79.4668 209.201 79.3027 209.834 78.9746C210.467 78.6348 210.936 78.1836 211.24 77.6211V74.3516H209.342C206.799 74.3516 205.445 75.2305 205.281 76.9883L205.264 77.2871C205.264 77.9199 205.486 78.4414 205.932 78.8516C206.377 79.2617 206.986 79.4668 207.76 79.4668ZM219.449 73.3496C219.449 70.3848 220.111 68.0234 221.436 66.2656C222.771 64.5078 224.594 63.6289 226.902 63.6289C228.754 63.6289 230.283 64.3203 231.49 65.7031V56H236.588V83H232L231.754 80.9785C230.488 82.5605 228.859 83.3516 226.867 83.3516C224.629 83.3516 222.83 82.4727 221.471 80.7148C220.123 78.9453 219.449 76.4902 219.449 73.3496ZM224.529 73.7188C224.529 75.5 224.84 76.8652 225.461 77.8145C226.082 78.7637 226.984 79.2383 228.168 79.2383C229.738 79.2383 230.846 78.5762 231.49 77.252V69.7461C230.857 68.4219 229.762 67.7598 228.203 67.7598C225.754 67.7598 224.529 69.7461 224.529 73.7188ZM250.826 77.7441C250.826 77.123 250.516 76.6367 249.895 76.2852C249.285 75.9219 248.301 75.5996 246.941 75.3184C242.418 74.3691 240.156 72.4473 240.156 69.5527C240.156 67.8652 240.854 66.459 242.248 65.334C243.654 64.1973 245.488 63.6289 247.75 63.6289C250.164 63.6289 252.092 64.1973 253.533 65.334C254.986 66.4707 255.713 67.9473 255.713 69.7637H250.633C250.633 69.0371 250.398 68.4395 249.93 67.9707C249.461 67.4902 248.729 67.25 247.732 67.25C246.877 67.25 246.215 67.4434 245.746 67.8301C245.277 68.2168 245.043 68.709 245.043 69.3066C245.043 69.8691 245.307 70.3262 245.834 70.6777C246.373 71.0176 247.275 71.3164 248.541 71.5742C249.807 71.8203 250.873 72.1016 251.74 72.418C254.424 73.4023 255.766 75.1074 255.766 77.5332C255.766 79.2676 255.021 80.6738 253.533 81.752C252.045 82.8184 250.123 83.3516 247.768 83.3516C246.174 83.3516 244.756 83.0703 243.514 82.5078C242.283 81.9336 241.316 81.1543 240.613 80.1699C239.91 79.1738 239.559 78.1016 239.559 76.9531H244.375C244.422 77.8555 244.756 78.5469 245.377 79.0273C245.998 79.5078 246.83 79.748 247.873 79.748C248.846 79.748 249.578 79.5664 250.07 79.2031C250.574 78.8281 250.826 78.3418 250.826 77.7441ZM278.863 72.3477H271.428V83H269.248V57.4062H277.562C280.293 57.4062 282.426 58.0684 283.961 59.3926C285.496 60.7168 286.264 62.5684 286.264 64.9473C286.264 66.5879 285.783 68.0352 284.822 69.2891C283.861 70.543 282.572 71.4102 280.955 71.8906L287.354 82.7715V83H285.051L278.863 72.3477ZM271.428 70.502H278.055C279.871 70.502 281.33 69.9863 282.432 68.9551C283.533 67.9238 284.084 66.5879 284.084 64.9473C284.084 63.1426 283.51 61.7422 282.361 60.7461C281.213 59.75 279.602 59.252 277.527 59.252H271.428V70.502ZM290.5 73.209C290.5 71.3809 290.852 69.7344 291.555 68.2695C292.27 66.8047 293.271 65.668 294.561 64.8594C295.861 64.0391 297.332 63.6289 298.973 63.6289C301.504 63.6289 303.555 64.5195 305.125 66.3008C306.695 68.0703 307.48 70.4199 307.48 73.3496V73.7891C307.48 75.6289 307.123 77.2871 306.408 78.7637C305.705 80.2285 304.709 81.3594 303.42 82.1562C302.131 82.9531 300.66 83.3516 299.008 83.3516C296.488 83.3516 294.438 82.4668 292.855 80.6973C291.285 78.916 290.5 76.5605 290.5 73.6309V73.209ZM292.609 73.7891C292.609 76.0625 293.195 77.9316 294.367 79.3965C295.551 80.8496 297.098 81.5762 299.008 81.5762C300.906 81.5762 302.441 80.8496 303.613 79.3965C304.797 77.9316 305.389 76.0039 305.389 73.6133V73.209C305.389 71.7559 305.119 70.4258 304.58 69.2188C304.041 68.0117 303.285 67.0801 302.312 66.4238C301.34 65.7559 300.227 65.4219 298.973 65.4219C297.098 65.4219 295.568 66.1602 294.385 67.6367C293.201 69.1016 292.609 71.0234 292.609 73.4023V73.7891ZM318.871 81.5762C320.336 81.5762 321.561 81.166 322.545 80.3457C323.541 79.5137 324.08 78.4414 324.162 77.1289H326.184C326.125 78.2891 325.762 79.3496 325.094 80.3105C324.426 81.2598 323.535 82.0039 322.422 82.543C321.32 83.082 320.137 83.3516 318.871 83.3516C316.375 83.3516 314.395 82.4844 312.93 80.75C311.477 79.0156 310.75 76.6836 310.75 73.7539V73.1211C310.75 71.2461 311.078 69.5879 311.734 68.1465C312.391 66.7051 313.328 65.5918 314.547 64.8066C315.777 64.0215 317.213 63.6289 318.854 63.6289C320.939 63.6289 322.656 64.25 324.004 65.4922C325.363 66.7344 326.09 68.3691 326.184 70.3965H324.162C324.068 68.9082 323.529 67.707 322.545 66.793C321.572 65.8789 320.342 65.4219 318.854 65.4219C316.955 65.4219 315.479 66.1074 314.424 67.4785C313.381 68.8496 312.859 70.7715 312.859 73.2441V73.8594C312.859 76.2852 313.381 78.1777 314.424 79.5371C315.479 80.8965 316.961 81.5762 318.871 81.5762ZM334.92 73.4199L332.512 75.7402V83H330.402V56H332.512V73.2793L334.498 71.1348L341.775 63.9805H344.43L336.361 71.9961L345.133 83H342.619L334.92 73.4199ZM355.064 83.3516C353.447 83.3516 351.982 82.9531 350.67 82.1562C349.369 81.3594 348.355 80.252 347.629 78.834C346.902 77.4043 346.539 75.8047 346.539 74.0352V73.2793C346.539 71.4512 346.891 69.8047 347.594 68.3398C348.309 66.875 349.299 65.7266 350.564 64.8945C351.83 64.0508 353.201 63.6289 354.678 63.6289C356.986 63.6289 358.814 64.4199 360.162 66.002C361.521 67.5723 362.201 69.7227 362.201 72.4531V73.6309H348.631V74.0352C348.631 76.1914 349.246 77.9902 350.477 79.4316C351.719 80.8613 353.277 81.5762 355.152 81.5762C356.277 81.5762 357.268 81.3711 358.123 80.9609C358.99 80.5508 359.775 79.8945 360.479 78.9922L361.797 79.9941C360.25 82.2324 358.006 83.3516 355.064 83.3516ZM354.678 65.4219C353.096 65.4219 351.76 66.002 350.67 67.1621C349.592 68.3223 348.936 69.8809 348.701 71.8379H360.109V71.6094C360.051 69.7812 359.529 68.293 358.545 67.1445C357.561 65.9961 356.271 65.4219 354.678 65.4219ZM369.566 59.1113V63.9805H373.504V65.7031H369.566V78.377C369.566 79.4316 369.754 80.2168 370.129 80.7324C370.516 81.248 371.154 81.5059 372.045 81.5059C372.396 81.5059 372.965 81.4473 373.75 81.3301L373.838 83.0527C373.287 83.252 372.537 83.3516 371.588 83.3516C370.146 83.3516 369.098 82.9355 368.441 82.1035C367.785 81.2598 367.457 80.0234 367.457 78.3945V65.7031H363.959V63.9805H367.457V59.1113H369.566Z" fill="white"/>
<path d="M162.809 102.324C163.025 102.004 163.321 101.744 163.697 101.544C164.081 101.344 164.517 101.244 165.005 101.244C165.573 101.244 166.085 101.384 166.541 101.664C167.005 101.944 167.369 102.344 167.633 102.864C167.905 103.376 168.041 103.972 168.041 104.652C168.041 105.332 167.905 105.936 167.633 106.464C167.369 106.984 167.005 107.388 166.541 107.676C166.085 107.964 165.573 108.108 165.005 108.108C164.509 108.108 164.073 108.012 163.697 107.82C163.329 107.62 163.033 107.364 162.809 107.052V108H161.129V99.12H162.809V102.324ZM166.325 104.652C166.325 104.252 166.241 103.908 166.073 103.62C165.913 103.324 165.697 103.1 165.425 102.948C165.161 102.796 164.873 102.72 164.561 102.72C164.257 102.72 163.969 102.8 163.697 102.96C163.433 103.112 163.217 103.336 163.049 103.632C162.889 103.928 162.809 104.276 162.809 104.676C162.809 105.076 162.889 105.424 163.049 105.72C163.217 106.016 163.433 106.244 163.697 106.404C163.969 106.556 164.257 106.632 164.561 106.632C164.873 106.632 165.161 106.552 165.425 106.392C165.697 106.232 165.913 106.004 166.073 105.708C166.241 105.412 166.325 105.06 166.325 104.652ZM175.622 101.352L171.506 111.144H169.718L171.158 107.832L168.494 101.352H170.378L172.094 105.996L173.834 101.352H175.622Z" fill="white"/>
<path d="M258.816 95.4218C261.371 95.4218 263.441 97.3412 263.441 99.7109V108.242C263.441 110.611 261.371 112.531 258.816 112.531H188.184C185.629 112.555 183.533 110.635 183.533 108.265V99.7346C183.533 97.3649 185.629 95.4218 188.184 95.4218H258.816ZM258.816 94H188.184C184.76 94 182 96.5592 182 99.7346V108.265C182 111.441 184.76 114 188.184 114H258.816C262.24 114 265 111.441 265 108.265V99.7346C265 96.5592 262.215 94 258.816 94Z" fill="white"/>
<path d="M191.123 103.265C190.688 103.099 190.28 102.839 189.947 102.554C189.717 102.317 189.59 102.009 189.59 101.701C189.564 101.369 189.666 101.038 189.896 100.753C190.101 100.516 190.433 100.374 190.765 100.374C191.148 100.35 191.506 100.516 191.736 100.777C191.992 101.109 192.119 101.535 192.094 101.962H193.959V101.914C194.01 101.085 193.704 100.256 193.091 99.6633C192.477 99.0946 191.634 98.8102 190.765 98.8339C189.922 98.8102 189.104 99.0946 188.516 99.6396C187.954 100.185 187.647 100.943 187.647 101.701C187.596 102.436 187.903 103.147 188.44 103.668C189.104 104.213 189.871 104.64 190.714 104.9C191.123 105.066 191.506 105.279 191.813 105.587C192.017 105.872 192.145 106.204 192.145 106.559C192.171 106.891 192.043 107.223 191.813 107.507C191.583 107.768 191.251 107.886 190.893 107.862C190.458 107.886 190.05 107.744 189.768 107.459C189.487 107.057 189.334 106.559 189.385 106.085H187.52C187.494 107.175 187.826 108.005 188.491 108.526C189.155 109.071 190.024 109.355 190.893 109.332C191.736 109.379 192.579 109.095 193.218 108.597C193.806 108.028 194.087 107.27 194.062 106.512C194.113 105.777 193.832 105.066 193.321 104.497C192.707 103.929 191.941 103.502 191.123 103.265Z" fill="white"/>
<path d="M201.012 98.9053L194.47 98.9527V100.493H196.77L196.821 109.166L198.764 109.142L198.687 100.469H201.012V98.9053Z" fill="white"/>
<path d="M207.656 99.7583C206.992 99.0711 206.021 98.6919 205.024 98.7393C204.028 98.7156 203.082 99.0948 202.418 99.782C201.753 100.469 201.447 101.417 201.472 102.626V105.469C201.498 106.678 201.83 107.626 202.494 108.289C203.159 108.976 204.13 109.355 205.127 109.284C206.123 109.332 207.069 108.953 207.733 108.265C208.397 107.602 208.704 106.63 208.704 105.445V102.554C208.679 101.37 208.321 100.422 207.656 99.7583ZM206.353 107.128C206.072 107.507 205.587 107.744 205.075 107.697C204.59 107.72 204.104 107.507 203.823 107.152C203.491 106.63 203.338 106.038 203.389 105.445V102.554C203.363 101.962 203.491 101.393 203.798 100.872C204.079 100.493 204.539 100.256 205.05 100.303C205.561 100.28 206.046 100.493 206.328 100.872C206.634 101.227 206.762 101.82 206.813 102.554V105.422C206.762 106.204 206.66 106.749 206.353 107.128Z" fill="white"/>
<path d="M216.294 108.218C216.243 107.934 216.217 107.626 216.217 107.341V106.607C216.217 106.085 216.115 105.54 215.859 105.066C215.629 104.64 215.22 104.332 214.735 104.19C215.169 103.976 215.502 103.645 215.757 103.242C216.013 102.815 216.115 102.341 216.115 101.867C216.115 100.896 215.808 100.185 215.246 99.6636C214.684 99.1423 213.917 98.8579 212.921 98.8579H209.931L210.007 109.095H211.898V104.995H213.048C213.406 104.972 213.764 105.138 213.943 105.446C214.173 105.801 214.301 106.204 214.275 106.63V107.341C214.275 107.673 214.301 108.005 214.326 108.36C214.352 108.621 214.454 108.882 214.658 109.071H216.652V108.905C216.447 108.716 216.319 108.479 216.294 108.218ZM213.866 103.029C213.636 103.289 213.278 103.455 212.921 103.408H211.873V100.398H212.921C213.278 100.374 213.636 100.54 213.841 100.801C214.071 101.156 214.198 101.559 214.198 101.962C214.224 102.341 214.096 102.72 213.866 103.029Z" fill="white"/>
<path d="M224.267 98.7866H222.146L220.459 103.265H220.434L218.67 98.8103H216.6L219.488 105.256L219.514 109.047H221.405L221.379 105.374L224.267 98.7866Z" fill="white"/>
<path d="M229.837 107.247C229.735 107.341 229.659 107.46 229.607 107.602C229.556 107.46 229.48 107.341 229.377 107.247C229.02 106.868 228.381 106.82 227.946 107.176C227.921 107.199 227.895 107.223 227.87 107.247C227.768 107.341 227.691 107.484 227.665 107.602C227.614 107.484 227.512 107.341 227.435 107.247C227.308 107.128 227.154 107.033 227.001 106.962C227.18 106.891 227.308 106.796 227.435 106.678C227.64 106.465 227.742 106.18 227.742 105.896C227.742 105.635 227.64 105.375 227.435 105.185C227.308 105.067 227.154 104.972 227.001 104.901C227.18 104.83 227.308 104.735 227.435 104.616C227.64 104.403 227.742 104.142 227.742 103.882C227.768 103.597 227.64 103.337 227.435 103.147C227.308 103.029 227.154 102.934 227.001 102.863C227.18 102.792 227.308 102.697 227.435 102.578C227.64 102.365 227.742 102.104 227.742 101.844C227.768 101.559 227.64 101.299 227.435 101.109C227.308 100.991 227.154 100.896 227.001 100.825C227.18 100.754 227.308 100.659 227.435 100.54C227.538 100.422 227.614 100.304 227.665 100.185C227.716 100.327 227.793 100.446 227.895 100.54C228.253 100.92 228.866 100.967 229.275 100.635C229.301 100.612 229.352 100.564 229.377 100.54C229.505 100.446 229.582 100.327 229.607 100.185C229.659 100.327 229.735 100.446 229.837 100.54C230.221 100.92 230.885 100.943 231.32 100.588C231.345 100.564 231.345 100.564 231.371 100.54C231.78 100.114 231.78 99.4741 231.371 99.0476C230.987 98.6685 230.323 98.6448 229.889 99.0002C229.863 99.0239 229.863 99.0239 229.837 99.0476C229.735 99.1424 229.659 99.2609 229.607 99.403C229.556 99.2609 229.48 99.1424 229.377 99.0476C229.02 98.6685 228.406 98.6211 227.998 98.9528C227.972 98.9765 227.921 99.0239 227.895 99.0476C227.768 99.1424 227.691 99.2609 227.665 99.403C227.614 99.2846 227.512 99.1424 227.435 99.0476C227.052 98.6685 226.388 98.6448 225.953 99.0002C225.928 99.0239 225.928 99.0239 225.902 99.0476C225.493 99.4741 225.493 100.114 225.902 100.54C226.03 100.683 226.183 100.777 226.388 100.825C226.209 100.872 226.03 100.967 225.902 101.109C225.698 101.299 225.595 101.583 225.595 101.844C225.595 102.128 225.698 102.389 225.902 102.578C226.03 102.721 226.183 102.815 226.388 102.863C226.209 102.91 226.03 103.005 225.902 103.147C225.698 103.337 225.595 103.621 225.595 103.882C225.595 104.166 225.698 104.427 225.902 104.616C226.03 104.758 226.183 104.853 226.388 104.901C226.209 104.948 226.03 105.043 225.902 105.185C225.698 105.375 225.595 105.635 225.595 105.896C225.595 106.18 225.698 106.465 225.902 106.678C226.03 106.82 226.183 106.915 226.388 106.962C226.209 107.01 226.03 107.104 225.902 107.247C225.698 107.436 225.595 107.697 225.595 107.958C225.595 108.242 225.698 108.526 225.902 108.74C226.285 109.119 226.95 109.142 227.384 108.787C227.41 108.763 227.41 108.763 227.435 108.74C227.538 108.621 227.614 108.503 227.665 108.36C227.691 108.503 227.793 108.645 227.895 108.74C228.279 109.119 228.918 109.142 229.326 108.787C229.352 108.763 229.377 108.763 229.377 108.74C229.505 108.645 229.582 108.503 229.607 108.36C229.659 108.503 229.735 108.645 229.837 108.74C230.042 108.929 230.297 109.048 230.579 109.048C230.86 109.048 231.141 108.929 231.345 108.74C231.55 108.526 231.652 108.242 231.652 107.958C231.652 107.697 231.55 107.436 231.345 107.247C230.987 106.868 230.349 106.82 229.914 107.152C229.914 107.199 229.889 107.223 229.837 107.247Z" fill="white"/>
<path d="M233.645 101.868C233.645 101.583 233.543 101.323 233.313 101.133C232.955 100.754 232.342 100.707 231.933 101.038C231.907 101.062 231.856 101.109 231.831 101.133C231.626 101.323 231.499 101.607 231.499 101.868C231.499 102.152 231.626 102.413 231.831 102.602C231.958 102.744 232.112 102.839 232.265 102.887C232.086 102.934 231.933 103.029 231.831 103.171C231.626 103.361 231.499 103.645 231.499 103.906C231.499 104.19 231.626 104.451 231.831 104.64C231.958 104.782 232.112 104.877 232.265 104.925C232.086 104.972 231.933 105.067 231.831 105.209C231.626 105.398 231.499 105.659 231.499 105.92C231.499 106.204 231.626 106.488 231.831 106.702C232.214 107.081 232.853 107.105 233.262 106.749C233.287 106.725 233.313 106.725 233.313 106.702C233.517 106.488 233.645 106.228 233.645 105.92C233.645 105.659 233.517 105.398 233.313 105.209C233.185 105.067 233.032 104.972 232.878 104.925C233.057 104.877 233.211 104.782 233.313 104.64C233.517 104.451 233.645 104.166 233.645 103.906C233.645 103.621 233.543 103.361 233.313 103.171C233.185 103.029 233.032 102.934 232.878 102.887C233.057 102.839 233.211 102.744 233.313 102.602C233.543 102.413 233.645 102.152 233.645 101.868Z" fill="white"/>
<path d="M239.139 100.588C239.241 100.47 239.318 100.351 239.369 100.233C239.42 100.375 239.471 100.493 239.574 100.588C239.778 100.778 240.059 100.896 240.34 100.896C240.621 100.896 240.902 100.778 241.081 100.588C241.49 100.162 241.49 99.5218 241.081 99.0952C240.698 98.7161 240.034 98.6924 239.599 99.0478C239.574 99.0715 239.574 99.0715 239.548 99.0952C239.446 99.19 239.369 99.3322 239.344 99.4507C239.293 99.3322 239.19 99.19 239.114 99.0952C238.73 98.7161 238.066 98.6924 237.632 99.0478C237.606 99.0715 237.606 99.0715 237.58 99.0952C237.172 99.5218 237.172 100.162 237.58 100.588C237.964 100.967 238.628 100.991 239.063 100.636C239.114 100.612 239.139 100.588 239.139 100.588Z" fill="white"/>
<path d="M237.146 105.209C237.018 105.066 236.865 104.972 236.712 104.924C236.89 104.877 237.044 104.782 237.146 104.64C237.35 104.427 237.453 104.166 237.453 103.905C237.478 103.621 237.35 103.36 237.146 103.171C237.018 103.029 236.865 102.934 236.712 102.886C236.89 102.839 237.044 102.744 237.146 102.602C237.35 102.389 237.453 102.128 237.453 101.867C237.478 101.583 237.35 101.322 237.146 101.133C236.763 100.754 236.098 100.73 235.664 101.085C235.638 101.109 235.638 101.109 235.613 101.133C235.408 101.346 235.306 101.607 235.306 101.867C235.306 102.128 235.408 102.389 235.613 102.602C235.74 102.721 235.919 102.815 236.098 102.886C235.919 102.934 235.766 103.029 235.613 103.171C235.408 103.384 235.306 103.645 235.306 103.905C235.306 104.166 235.408 104.427 235.613 104.64C235.74 104.758 235.919 104.853 236.098 104.924C235.919 104.972 235.766 105.066 235.613 105.209C235.434 105.398 235.332 105.659 235.306 105.92C235.306 106.204 235.408 106.465 235.613 106.702C235.817 106.891 236.098 107.01 236.379 107.01C236.66 107.01 236.942 106.891 237.12 106.702C237.325 106.488 237.427 106.204 237.427 105.92C237.478 105.659 237.35 105.398 237.146 105.209Z" fill="white"/>
<path d="M239.599 107.247C239.497 107.342 239.42 107.484 239.395 107.602C239.344 107.484 239.241 107.342 239.165 107.247C238.807 106.868 238.168 106.82 237.734 107.176C237.708 107.199 237.683 107.223 237.657 107.247C237.453 107.436 237.35 107.697 237.35 107.958C237.35 108.242 237.453 108.527 237.657 108.74C238.04 109.119 238.705 109.143 239.139 108.787C239.165 108.763 239.165 108.763 239.19 108.74C239.293 108.621 239.369 108.503 239.42 108.361C239.471 108.503 239.523 108.621 239.625 108.74C239.829 108.929 240.11 109.048 240.391 109.048C240.672 109.048 240.954 108.929 241.132 108.74C241.337 108.527 241.439 108.242 241.439 107.958C241.439 107.697 241.337 107.436 241.132 107.247C240.775 106.868 240.136 106.82 239.701 107.176C239.65 107.199 239.625 107.223 239.599 107.247Z" fill="white"/>
<path d="M243.381 101.867C243.381 101.583 243.279 101.322 243.075 101.133C242.691 100.754 242.027 100.73 241.592 101.085C241.567 101.109 241.567 101.109 241.541 101.133C241.337 101.322 241.235 101.607 241.235 101.867C241.235 102.152 241.337 102.412 241.541 102.602C241.669 102.744 241.822 102.839 241.976 102.886C241.797 102.934 241.644 103.029 241.541 103.171C241.337 103.36 241.235 103.645 241.235 103.905C241.235 104.19 241.337 104.45 241.541 104.64C241.669 104.782 241.822 104.877 241.976 104.924C241.797 104.972 241.644 105.066 241.541 105.209C241.337 105.398 241.235 105.659 241.235 105.92C241.235 106.204 241.337 106.488 241.541 106.702C241.72 106.891 242.001 107.01 242.282 107.01C242.563 107.01 242.845 106.891 243.049 106.702C243.228 106.488 243.356 106.204 243.356 105.92C243.356 105.659 243.253 105.398 243.049 105.209C242.921 105.09 242.742 104.995 242.563 104.924C242.742 104.877 242.896 104.782 243.049 104.64C243.228 104.427 243.33 104.166 243.356 103.905C243.356 103.621 243.253 103.36 243.049 103.171C242.921 103.052 242.742 102.957 242.563 102.886C242.742 102.839 242.896 102.744 243.049 102.602C243.279 102.412 243.381 102.152 243.381 101.867Z" fill="white"/>
<path d="M248.62 99.0952C248.518 99.19 248.441 99.3322 248.415 99.4507C248.364 99.3322 248.262 99.19 248.185 99.0952C247.802 98.7161 247.138 98.6924 246.703 99.0478C246.678 99.0715 246.678 99.0715 246.652 99.0952C246.55 99.19 246.473 99.3085 246.422 99.4507C246.371 99.3085 246.294 99.19 246.192 99.0952C245.809 98.7161 245.144 98.6924 244.71 99.0478C244.684 99.0715 244.684 99.0715 244.659 99.0952C244.454 99.2848 244.352 99.5692 244.352 99.8298C244.352 100.114 244.454 100.375 244.659 100.564C245.042 100.944 245.707 100.967 246.141 100.612C246.167 100.588 246.167 100.588 246.192 100.564C246.294 100.47 246.371 100.351 246.422 100.209C246.473 100.351 246.55 100.47 246.652 100.564C246.78 100.683 246.933 100.778 247.087 100.849C246.908 100.896 246.754 100.991 246.652 101.133C246.448 101.323 246.32 101.607 246.32 101.868C246.32 102.152 246.448 102.413 246.652 102.602C246.78 102.721 246.933 102.816 247.087 102.887C246.908 102.934 246.754 103.029 246.652 103.171C246.448 103.361 246.32 103.645 246.32 103.906C246.32 104.19 246.448 104.451 246.652 104.64C246.78 104.759 246.933 104.854 247.087 104.925C246.627 105.09 246.32 105.47 246.32 105.92C246.32 106.204 246.448 106.489 246.652 106.702C246.78 106.82 246.933 106.915 247.087 106.986C246.908 107.034 246.754 107.128 246.652 107.271C246.448 107.46 246.32 107.721 246.32 107.981C246.32 108.266 246.448 108.55 246.652 108.763C246.831 108.953 247.112 109.072 247.393 109.072C247.674 109.072 247.955 108.953 248.16 108.763C248.364 108.55 248.466 108.266 248.466 107.981C248.466 107.721 248.364 107.46 248.16 107.271C248.032 107.128 247.879 107.034 247.674 106.986C247.853 106.939 248.006 106.844 248.16 106.702C248.364 106.489 248.466 106.204 248.466 105.92C248.466 105.659 248.364 105.399 248.16 105.209C248.032 105.09 247.853 104.996 247.674 104.925C248.16 104.782 248.466 104.38 248.441 103.906C248.466 103.621 248.339 103.361 248.134 103.171C248.006 103.053 247.828 102.958 247.649 102.887C248.134 102.745 248.441 102.342 248.415 101.868C248.441 101.583 248.313 101.323 248.109 101.133C247.981 101.015 247.802 100.92 247.623 100.849C247.802 100.801 247.955 100.707 248.109 100.564C248.211 100.446 248.288 100.327 248.339 100.209C248.39 100.351 248.441 100.47 248.543 100.564C248.926 100.944 249.591 100.967 250.025 100.612C250.051 100.588 250.051 100.588 250.076 100.564C250.281 100.375 250.409 100.09 250.409 99.8298C250.409 99.5455 250.306 99.2848 250.076 99.0952C249.693 98.7161 249.029 98.6924 248.594 99.0478C248.645 99.0715 248.645 99.0715 248.62 99.0952Z" fill="white"/>
<path d="M255.698 103.171C255.596 103.266 255.519 103.384 255.468 103.526C255.417 103.384 255.341 103.266 255.238 103.171C254.881 102.792 254.242 102.744 253.807 103.1C253.782 103.123 253.756 103.147 253.731 103.171C253.526 103.384 253.424 103.645 253.424 103.905C253.424 104.166 253.526 104.427 253.731 104.64C254.114 105.019 254.778 105.043 255.213 104.687C255.238 104.664 255.238 104.664 255.264 104.64C255.366 104.545 255.443 104.403 255.494 104.284C255.545 104.427 255.622 104.545 255.724 104.64C255.903 104.829 256.184 104.948 256.465 104.948C256.746 104.948 257.027 104.829 257.232 104.64C257.41 104.427 257.513 104.166 257.538 103.905C257.538 103.621 257.436 103.36 257.232 103.171C256.848 102.792 256.184 102.768 255.749 103.123C255.724 103.147 255.698 103.147 255.698 103.171Z" fill="white"/>
<path d="M255.213 100.588C255.315 100.493 255.392 100.375 255.443 100.233C255.494 100.375 255.571 100.493 255.673 100.588C256.056 100.967 256.72 100.991 257.155 100.636C257.18 100.612 257.18 100.612 257.206 100.588C257.308 100.47 257.385 100.351 257.436 100.233C257.564 100.636 257.973 100.92 258.407 100.896C258.688 100.896 258.969 100.778 259.148 100.588C259.557 100.162 259.557 99.5218 259.148 99.0952C258.765 98.7161 258.1 98.6924 257.666 99.0478C257.64 99.0715 257.64 99.0715 257.615 99.0952C257.513 99.19 257.436 99.3322 257.41 99.4507C257.359 99.3322 257.257 99.19 257.18 99.0952C256.797 98.7161 256.133 98.6924 255.698 99.0478C255.673 99.0715 255.673 99.0715 255.647 99.0952C255.545 99.19 255.468 99.3085 255.417 99.4507C255.366 99.3085 255.289 99.19 255.187 99.0952C254.804 98.7161 254.14 98.6924 253.705 99.0478C253.68 99.0715 253.68 99.0715 253.654 99.0952C253.245 99.5218 253.245 100.162 253.654 100.588C254.037 100.967 254.702 100.991 255.136 100.636C255.187 100.612 255.213 100.588 255.213 100.588Z" fill="white"/>
<path d="M255.698 107.247C255.596 107.342 255.519 107.46 255.468 107.602C255.417 107.46 255.341 107.342 255.238 107.247C254.881 106.868 254.242 106.82 253.807 107.176C253.782 107.199 253.756 107.223 253.731 107.247C253.628 107.365 253.552 107.484 253.501 107.602C253.45 107.46 253.398 107.342 253.296 107.247C252.938 106.868 252.3 106.82 251.865 107.176C251.84 107.199 251.814 107.223 251.789 107.247C251.584 107.436 251.482 107.697 251.482 107.958C251.482 108.242 251.584 108.527 251.789 108.74C252.172 109.119 252.836 109.143 253.271 108.787C253.296 108.763 253.296 108.763 253.322 108.74C253.424 108.621 253.501 108.503 253.526 108.361C253.577 108.503 253.68 108.621 253.756 108.74C254.14 109.119 254.804 109.143 255.238 108.787C255.264 108.763 255.264 108.763 255.289 108.74C255.392 108.621 255.468 108.503 255.519 108.361C255.571 108.503 255.647 108.645 255.749 108.74C255.928 108.929 256.209 109.048 256.49 109.048C256.772 109.048 257.053 108.929 257.257 108.74C257.436 108.527 257.564 108.242 257.564 107.958C257.564 107.697 257.462 107.436 257.257 107.247C256.899 106.868 256.26 106.82 255.826 107.176C255.749 107.199 255.724 107.223 255.698 107.247Z" fill="white"/>
<path d="M252.478 102.934C252.76 102.934 253.041 102.816 253.245 102.626C253.424 102.413 253.526 102.152 253.552 101.891C253.552 101.607 253.45 101.346 253.245 101.157C252.862 100.778 252.197 100.754 251.763 101.109C251.737 101.133 251.737 101.133 251.712 101.157C251.507 101.346 251.405 101.631 251.405 101.891C251.405 102.176 251.507 102.436 251.712 102.626C251.942 102.816 252.197 102.934 252.478 102.934Z" fill="white"/>
<path d="M257.64 105.209C257.462 105.398 257.359 105.659 257.334 105.92C257.334 106.204 257.436 106.465 257.64 106.702C257.845 106.891 258.126 107.01 258.407 107.01C258.688 107.01 258.969 106.891 259.148 106.702C259.353 106.488 259.455 106.204 259.455 105.92C259.455 105.659 259.353 105.398 259.148 105.209C258.79 104.83 258.152 104.782 257.717 105.138C257.717 105.161 257.692 105.185 257.64 105.209Z" fill="white"/>
<ellipse cx="80.8271" cy="62.3892" rx="33.5" ry="33" stroke="#FDDB6E" stroke-width="3" stroke-linecap="round" stroke-linejoin="round" stroke-dasharray="6 6 6 6 6 6"/>
<ellipse cx="80.9543" cy="62.3647" rx="23" ry="22.5" fill="#FDDB6E"/>
<path opacity="0.5" d="M68.6414 107.572C65.7234 110.374 63.162 113.51 61.0844 117.109C56.4454 125.144 54.7095 134.177 55.5947 143.46C64.0297 139.54 71.0318 133.565 75.6707 125.53C77.7484 121.932 79.2385 118.177 80.1512 114.217L68.6414 107.572Z" fill="#A080FF"/>
<path opacity="0.6" d="M69.7127 108.191C69.0535 109.11 68.4176 110.117 67.8228 111.147C63.9927 117.781 62.3383 124.865 62.6781 131.159C68.3129 128.314 73.6071 123.332 77.4372 116.698C78.0319 115.667 78.5538 114.669 79.0523 113.583L69.7127 108.191Z" fill="#A080FF"/>
<path d="M70.6878 108.754C68.0155 113.383 69.7673 118.881 69.7673 118.881C69.7673 118.881 75.4048 117.649 78.0771 113.02L70.6878 108.754Z" fill="#A080FF"/>
<path d="M71.7224 110.102L76.4472 112.83C77.7346 113.518 79.0305 114.065 80.2772 114.601C91.7263 107.934 101.583 98.3156 108.68 86.0229C117.451 70.8322 120.564 53.895 118.692 37.7245C118.514 36.1932 116.934 35.2813 115.519 35.8927C100.542 42.3904 87.446 53.5272 78.6836 68.7042C71.5864 80.9969 68.226 94.3665 68.1356 107.591C69.3294 108.537 70.4826 109.331 71.7224 110.102Z" fill="#A080FF"/>
<path d="M118.725 37.7621C118.668 37.4176 118.6 37.1223 118.446 36.8501C116.388 49.36 110.453 65.2538 101.175 81.3235C93.7289 94.2205 85.3155 105.24 77.1714 113.193C78.2253 113.746 79.256 114.213 80.2693 114.615C91.7184 107.948 101.575 98.3294 108.673 86.0368C117.484 70.8698 120.581 53.9601 118.725 37.7621Z" fill="#774DF7"/>
<path d="M85.1735 111.513C82.2943 110.473 79.3201 109.122 76.3808 107.425C73.4416 105.728 70.7983 103.836 68.4445 101.854C68.2806 103.756 68.2129 105.713 68.2181 107.639C69.3063 108.45 70.4906 109.317 71.6675 110.07L76.3923 112.798C77.6797 113.486 78.9756 114.033 80.2223 114.57C81.924 113.684 83.5849 112.647 85.1735 111.513Z" fill="#774DF7"/>
<path d="M110.581 48.3154C113.438 49.9648 116.279 51.2934 119.062 52.2776C119.383 47.4084 119.296 42.5786 118.725 37.7624C118.547 36.2312 116.968 35.3192 115.553 35.9306C111.137 37.8683 106.862 40.198 102.814 42.8967C105.122 44.7974 107.725 46.666 110.581 48.3154Z" fill="#774DF7"/>
<path d="M94.9598 75.3729C100.148 78.3685 106.783 76.5908 109.778 71.4023C112.774 66.2138 110.996 59.5792 105.808 56.5837C100.619 53.5881 93.9847 55.3658 90.9892 60.5543C87.9936 65.7428 89.7713 72.3773 94.9598 75.3729Z" fill="#5B21D9"/>
<path d="M96.0144 73.5462C101.203 76.5418 107.837 74.7641 110.833 69.5756C113.829 64.3871 112.051 57.7526 106.862 54.757C101.674 51.7614 95.0393 53.5391 92.0437 58.7276C89.0481 63.9161 90.8259 70.5506 96.0144 73.5462Z" fill="#774DF7"/>
<path d="M98.1475 69.8511C101.5 71.7869 105.788 70.6381 107.723 67.2853C109.659 63.9325 108.51 59.6453 105.157 57.7096C101.805 55.7738 97.5174 56.9226 95.5817 60.2754C93.646 63.6282 94.7947 67.9154 98.1475 69.8511Z" fill="#5B21D9"/>
<path d="M78.7798 68.7598C78.9146 68.5263 79.0732 68.2516 79.208 68.0181C70.9563 69.2423 62.1681 75.6141 56.4428 85.5307C52.7475 91.9311 50.9389 98.7432 51.0278 104.838C51.0161 106.571 53.0833 107.526 54.4141 106.427C59.1129 102.602 64.2666 100.907 68.4455 102.075C69.285 90.6926 72.6818 79.3218 78.7798 68.7598Z" fill="#774DF7"/>
<path d="M108.777 86.0785C108.912 85.845 109.07 85.5703 109.205 85.3368C112.271 93.0952 111.146 103.892 105.421 113.808C101.726 120.209 96.7308 125.181 91.4082 128.152C89.9132 129.028 88.0522 127.716 88.3391 126.013C89.3021 120.032 88.1926 114.721 85.0921 111.686C94.5159 105.26 102.679 96.6406 108.777 86.0785Z" fill="#5A20D8"/>
<path d="M97.3387 71.2525C100.692 73.1883 104.979 72.0395 106.914 68.6867C108.85 65.3339 107.701 61.0467 104.349 59.1109C100.996 57.1752 96.7087 58.3239 94.7729 61.6768C92.8372 65.0296 93.9859 69.3168 97.3387 71.2525Z" fill="#8964F9"/>
<path d="M101.624 58.2155L93.9524 63.5104C93.8201 64.0567 93.7428 64.6347 93.7479 65.2603L103.304 58.6361C102.814 58.4077 102.226 58.2517 101.624 58.2155Z" fill="#A080FF"/>
<path d="M107.291 62.4207C106.761 61.181 105.881 60.105 104.72 59.3247L93.9497 66.75C94.2626 68.0478 94.9121 69.3018 95.921 70.2505L107.291 62.4207Z" fill="#A080FF"/>
<path d="M115.057 50.5876C116.399 51.1798 117.742 51.772 119.086 52.2363C119.406 47.3671 119.32 42.5373 118.749 37.7211C118.692 37.3766 118.624 37.0812 118.47 36.8091C117.729 41.106 116.605 45.7494 115.057 50.5876Z" fill="#6027D7"/>
<path d="M80.6455 109.65C79.4833 110.902 78.3274 112.047 77.2127 113.217C78.2666 113.77 79.2973 114.237 80.3105 114.639C81.981 113.681 83.6008 112.62 85.2068 111.551C83.6472 111.017 82.1432 110.386 80.6455 109.65Z" fill="#5A20D8"/>
</svg>
