<svg width="56" height="55" viewBox="0 0 56 55" fill="none" xmlns="http://www.w3.org/2000/svg">
<rect x="0.333496" width="55" height="55" rx="27.5" fill="white"/>
<path d="M33.5168 12H22.1502C16.8113 12 12.3335 16.4778 12.3335 21.8167V33.1833C12.3335 38.5222 16.8113 43 22.1502 43H33.5168C38.8557 43 43.3335 38.5222 43.3335 33.1833V21.8167C43.3335 16.4778 38.8557 12 33.5168 12ZM15.9502 21.8167C15.9502 18.3722 18.7057 15.6167 22.1502 15.6167H33.5168C36.9613 15.6167 39.7168 18.3722 39.7168 21.8167V33.1833C39.7168 36.6278 36.9613 39.3833 33.5168 39.3833H22.1502C18.7057 39.3833 15.9502 36.6278 15.9502 33.1833V21.8167Z" fill="#5A20D8"/>
<path d="M27.8335 35.5942C32.3112 35.5942 35.9279 31.9775 35.9279 27.4997C35.9279 23.0219 32.3112 19.4053 27.8335 19.4053C23.3557 19.4053 19.739 23.0219 19.739 27.4997C19.739 31.9775 23.3557 35.5942 27.8335 35.5942ZM27.8335 23.0219C30.2446 23.0219 32.3112 25.0886 32.3112 27.4997C32.3112 29.9108 30.2446 31.9775 27.8335 31.9775C25.4223 31.9775 23.3557 29.9108 23.3557 27.4997C23.3557 25.0886 25.4223 23.0219 27.8335 23.0219Z" fill="#5A20D8"/>
<path d="M35.9279 20.7829C36.7891 20.7829 37.3057 20.094 37.3057 19.4051C37.3057 18.544 36.6168 18.0273 35.9279 18.0273C35.0668 18.0273 34.5502 18.7162 34.5502 19.4051C34.5502 20.094 35.2391 20.7829 35.9279 20.7829Z" fill="#5A20D8"/>
</svg>
