<svg width="54" height="54" viewBox="0 0 54 54" fill="none" xmlns="http://www.w3.org/2000/svg">
<rect x="0.333496" width="53" height="54" rx="26.5" fill="white"/>
<path d="M41.8335 40.5007V30.0507C41.8335 24.9207 40.6935 20.9307 34.8035 20.9307C32.5235 20.9307 30.4335 22.0707 29.2935 23.9707V21.5007H23.5935V40.5007H29.4835V31.1907C29.4835 28.7207 29.8635 26.2507 33.0935 26.2507C36.1335 26.2507 36.1335 29.1007 36.1335 31.1907V40.5007H41.8335Z" fill="#5A20D8"/>
<path d="M13.9034 21.5H19.7934V40.5H13.9034V21.5Z" fill="#5A20D8"/>
<path d="M16.7535 12C14.8535 12 13.3335 13.52 13.3335 15.42C13.3335 17.32 14.8535 18.84 16.7535 18.84C18.6535 18.84 20.1735 17.32 20.1735 15.42C20.1735 13.52 18.6535 12 16.7535 12Z" fill="#5A20D8"/>
</svg>
