<svg width="54" height="54" viewBox="0 0 54 54" fill="none" xmlns="http://www.w3.org/2000/svg">
<rect x="0.333496" width="53" height="54" rx="26.5" fill="white"/>
<path d="M42.9129 16.2537V16.0746V15.8955C42.9129 15.8955 42.9129 15.8955 42.9129 15.7164C42.9129 15.7164 42.9129 15.5373 42.7338 15.5373C42.7338 15.5373 42.7338 15.3582 42.5547 15.3582L42.3756 15.1791C42.3756 15.1791 42.1965 15.1791 42.1965 15C42.1965 15 42.1965 15 42.0174 15H41.8383H41.6592H12.1076H11.9285H11.7494C11.7494 15 11.7494 15 11.5703 15C11.5703 15 11.3912 15 11.3912 15.1791C11.3912 15.1791 11.2121 15.1791 11.2121 15.3582L11.033 15.5373C11.033 15.5373 11.033 15.7164 10.8539 15.7164C10.8539 15.7164 10.8539 15.7164 10.8539 15.8955V16.0746V16.2537V37.7458V37.9249C10.8539 37.9249 10.8539 37.9249 10.8539 38.104V38.2831C10.8539 38.2831 10.8539 38.2831 10.8539 38.4622C10.8539 38.4622 10.8539 38.4622 10.8539 38.6413C11.033 38.8204 11.033 38.9995 11.2121 38.9995C11.2121 38.9995 11.2121 38.9995 11.3912 38.9995C11.3912 38.9995 11.3912 38.9995 11.5703 38.9995H11.7494C11.7494 38.9995 11.7494 38.9995 11.9285 38.9995H12.1076H41.6592H41.8383C41.8383 38.9995 41.8383 38.9995 42.0174 38.9995H42.1965C42.1965 38.9995 42.1965 38.9995 42.3756 38.9995C42.3756 38.9995 42.3756 38.9995 42.5547 38.9995C42.7338 38.8204 42.9129 38.8204 42.9129 38.6413C42.9129 38.6413 42.9129 38.6413 42.9129 38.4622C42.9129 38.4622 42.9129 38.4622 42.9129 38.2831V38.104C42.9129 38.104 42.9129 38.104 42.9129 37.9249V37.7458V16.2537ZM38.2563 17.5074L28.2267 27.7161C27.5103 28.4325 26.2566 28.4325 25.5402 27.7161L15.3315 17.6865L38.2563 17.5074ZM13.3614 19.4775L20.8836 26.9997L13.3614 34.522V19.4775ZM15.3315 36.313L22.8537 28.7907L23.5701 29.5071C25.3611 31.2982 28.2267 31.2982 30.0177 29.5071L30.7341 28.7907L38.2563 36.313H15.3315ZM40.2264 34.522L32.7042 26.9997L40.2264 19.4775V34.522Z" fill="#5A20D8"/>
</svg>
