<svg width="145" height="150" viewBox="0 0 145 150" fill="none" xmlns="http://www.w3.org/2000/svg">
<ellipse cx="80.8271" cy="58.3893" rx="33.5" ry="33" stroke="#FDDB6E" stroke-width="3" stroke-linecap="round" stroke-linejoin="round" stroke-dasharray="6 6 6 6 6 6"/>
<ellipse cx="80.9543" cy="58.3646" rx="23" ry="22.5" fill="#FDDB6E"/>
<path opacity="0.5" d="M68.6414 103.572C65.7234 106.374 63.162 109.51 61.0844 113.109C56.4454 121.144 54.7095 130.177 55.5947 139.46C64.0297 135.54 71.0318 129.565 75.6707 121.53C77.7484 117.932 79.2385 114.177 80.1512 110.217L68.6414 103.572Z" fill="#A080FF"/>
<path opacity="0.6" d="M69.7127 104.191C69.0535 105.11 68.4176 106.117 67.8228 107.147C63.9927 113.781 62.3383 120.865 62.6781 127.159C68.3129 124.314 73.6071 119.332 77.4372 112.698C78.0319 111.667 78.5538 110.669 79.0523 109.583L69.7127 104.191Z" fill="#A080FF"/>
<path d="M70.6878 104.754C68.0155 109.382 69.7673 114.88 69.7673 114.88C69.7673 114.88 75.4048 113.648 78.0771 109.02L70.6878 104.754Z" fill="#A080FF"/>
<path d="M71.7224 106.102L76.4472 108.83C77.7346 109.518 79.0305 110.065 80.2773 110.601C91.7263 103.935 101.583 94.3158 108.68 82.0231C117.451 66.8324 120.564 49.8952 118.692 33.7247C118.514 32.1934 116.934 31.2815 115.519 31.8929C100.542 38.3906 87.4461 49.5274 78.6836 64.7044C71.5865 76.9971 68.226 90.3667 68.1357 103.592C69.3295 104.537 70.4826 105.331 71.7224 106.102Z" fill="#A080FF"/>
<path d="M118.725 33.7622C118.668 33.4177 118.6 33.1223 118.446 32.8501C116.388 45.36 110.453 61.2538 101.175 77.3235C93.729 90.2205 85.3155 101.24 77.1715 109.193C78.2254 109.746 79.2561 110.213 80.2693 110.615C91.7184 103.948 101.575 94.3295 108.673 82.0368C117.484 66.8699 120.581 49.9602 118.725 33.7622Z" fill="#774DF7"/>
<path d="M85.1736 107.513C82.2944 106.473 79.3201 105.123 76.3809 103.426C73.4416 101.729 70.7983 99.8363 68.4446 97.8547C68.2807 99.7562 68.213 101.713 68.2182 103.639C69.3063 104.45 70.4906 105.317 71.6676 106.07L76.3924 108.798C77.6798 109.486 78.9756 110.033 80.2224 110.57C81.924 109.684 83.585 108.647 85.1736 107.513Z" fill="#774DF7"/>
<path d="M110.582 44.3152C113.438 45.9646 116.279 47.2932 119.062 48.2774C119.383 43.4081 119.296 38.5784 118.725 33.7622C118.547 32.2309 116.968 31.319 115.553 31.9304C111.138 33.8681 106.862 36.1978 102.814 38.8964C105.123 40.7972 107.725 42.6658 110.582 44.3152Z" fill="#774DF7"/>
<path d="M94.9598 71.3728C100.148 74.3684 106.783 72.5906 109.778 67.4021C112.774 62.2136 110.996 55.5791 105.808 52.5835C100.619 49.5879 93.9847 51.3657 90.9892 56.5542C87.9936 61.7427 89.7713 68.3772 94.9598 71.3728Z" fill="#5B21D9"/>
<path d="M96.0144 69.546C101.203 72.5416 107.837 70.7639 110.833 65.5754C113.829 60.3869 112.051 53.7524 106.862 50.7568C101.674 47.7612 95.0393 49.5389 92.0438 54.7274C89.0482 59.9159 90.8259 66.5504 96.0144 69.546Z" fill="#774DF7"/>
<path d="M98.1475 65.8514C101.5 67.7871 105.788 66.6383 107.723 63.2855C109.659 59.9327 108.51 55.6455 105.157 53.7098C101.805 51.774 97.5175 52.9228 95.5817 56.2756C93.646 59.6284 94.7947 63.9156 98.1475 65.8514Z" fill="#5B21D9"/>
<path d="M78.7798 64.7599C78.9146 64.5264 79.0732 64.2517 79.208 64.0182C70.9563 65.2424 62.1681 71.6143 56.4428 81.5308C52.7475 87.9313 50.9389 94.7434 51.0278 100.838C51.0161 102.571 53.0833 103.526 54.4141 102.427C59.1129 98.6019 64.2666 96.9076 68.4455 98.075C69.285 86.6928 72.6818 75.322 78.7798 64.7599Z" fill="#774DF7"/>
<path d="M108.777 82.0786C108.912 81.8451 109.07 81.5704 109.205 81.3369C112.271 89.0953 111.147 99.8919 105.421 109.808C101.726 116.209 96.7308 121.181 91.4082 124.152C89.9132 125.028 88.0522 123.716 88.3391 122.013C89.3021 116.032 88.1927 110.721 85.0922 107.686C94.516 101.26 102.679 92.6406 108.777 82.0786Z" fill="#5A20D8"/>
<path d="M97.3388 67.2523C100.692 69.1881 104.979 68.0393 106.915 64.6865C108.85 61.3337 107.702 57.0465 104.349 55.1107C100.996 53.175 96.7087 54.3238 94.7729 57.6766C92.8372 61.0294 93.986 65.3166 97.3388 67.2523Z" fill="#8964F9"/>
<path d="M101.624 54.2153L93.9523 59.5102C93.8201 60.0565 93.7428 60.6345 93.7478 61.2601L103.304 54.6359C102.814 54.4075 102.226 54.2515 101.624 54.2153Z" fill="#A080FF"/>
<path d="M107.291 58.4208C106.761 57.1811 105.881 56.1051 104.72 55.3248L93.9497 62.7501C94.2626 64.0479 94.9121 65.3019 95.921 66.2506L107.291 58.4208Z" fill="#A080FF"/>
<path d="M115.057 46.5875C116.399 47.1797 117.742 47.7719 119.086 48.2362C119.406 43.367 119.32 38.5372 118.749 33.721C118.692 33.3765 118.624 33.0811 118.47 32.809C117.729 37.1059 116.605 41.7493 115.057 46.5875Z" fill="#6027D7"/>
<path d="M80.6455 105.65C79.4833 106.902 78.3274 108.047 77.2127 109.217C78.2666 109.77 79.2973 110.237 80.3105 110.639C81.981 109.681 83.6008 108.62 85.2068 107.551C83.6472 107.017 82.1432 106.386 80.6455 105.65Z" fill="#5A20D8"/>
</svg>
